<?xml version="1.0" standalone="no"?>
<!DOCTYPE svg PUBLIC "-//W3C//DTD SVG 1.1//EN" "http://www.w3.org/Graphics/SVG/1.1/DTD/svg11.dtd" >
<svg xmlns="http://www.w3.org/2000/svg" xmlns:xlink="http://www.w3.org/1999/xlink" version="1.1">
<metadata>
Created by FontForge 20230101 at Sun Apr 15 23:12:40 2012
 By Unknown
</metadata>
<defs>
<font id="MarvinW01-Regular" horiz-adv-x="812" >
  <font-face 
    font-family="MarvinW01-Regular"
    font-weight="400"
    font-stretch="normal"
    units-per-em="1000"
    panose-1="2 0 0 0 0 0 0 0 0 0"
    ascent="851"
    descent="-149"
    x-height="743"
    cap-height="756"
    bbox="-34 -295 1418 1050"
    underline-thickness="50"
    underline-position="-100"
    unicode-range="U+0020-2122"
  />
<missing-glyph horiz-adv-x="0" 
 />
    <glyph glyph-name=".notdef" horiz-adv-x="0" 
 />
    <glyph glyph-name="glyph1" horiz-adv-x="0" 
 />
    <glyph glyph-name="glyph2" horiz-adv-x="0" 
 />
    <glyph glyph-name="space" unicode=" " horiz-adv-x="400" 
 />
    <glyph glyph-name="exclam" unicode="!" horiz-adv-x="401" 
d="M146 -17q-21 0 -40.5 8t-35 23t-24.5 35t-9 44q0 22 8.5 42.5t23 36t34 24.5t42.5 9q21 0 40.5 -8.5t35 -23t24.5 -35t9 -44.5q0 -21 -8 -41t-22 -35.5t-34 -25t-44 -9.5zM81 279l29 486l272 -42l-116 -481z" />
    <glyph glyph-name="quotedbl" unicode="&#x22;" horiz-adv-x="418" 
d="M260 510l-32 237l175 21l-25 -276zM50 510l-32 237l175 21l-25 -276z" />
    <glyph glyph-name="numbersign" unicode="#" horiz-adv-x="1148" 
d="M780 44l-14 159l325 46l16 -189zM926 285q-44 0 -79 15.5t-59 42t-36.5 62t-12.5 76.5q0 39 14.5 72.5t39 57.5t57.5 38t70 14q38 0 73 -13t62 -37t43 -58.5t16 -77.5q0 -38 -12.5 -72.5t-36.5 -61t-59 -42.5t-80 -16zM927 421q27 0 41.5 19.5t14.5 42.5q0 30 -15 48.5
t-41 18.5q-31 0 -46.5 -19t-15.5 -42q0 -30 17 -49t45 -19zM529 -31l-273 424l18 -404l-214 22l-18 677l233 44l198 -377l-15 381l251 14l-67 -758z" />
    <glyph glyph-name="dollar" unicode="$" horiz-adv-x="588" 
d="M231 23l-1 46q-63 7 -118 30.5t-88 62.5l82 110q41 -29 82.5 -42t76.5 -13q45 0 72.5 17.5t27.5 49.5q0 24 -23 35.5t-58 19t-75 15t-75 22t-58 40.5t-23 72q0 39 13.5 68t36.5 49.5t53.5 33t65.5 18.5l-1 60l101 17l-2 -69q37 0 72 -4t65 -9l-5 -138q-20 8 -58 16.5
t-76 8.5q-35 0 -59.5 -9.5t-24.5 -35.5q0 -19 24 -25.5t60 -9.5t77.5 -9t77.5 -24t60 -54t24 -99q0 -51 -21.5 -89t-56.5 -63.5t-81 -39t-95 -15.5l-2 -59z" />
    <glyph glyph-name="percent" unicode="%" horiz-adv-x="1010" 
d="M220 39l444 753l128 -79l-449 -765zM208 291q-44 0 -79.5 20t-60.5 55t-38 82t-13 101q0 49 13.5 92t39 75t61.5 51t81 19t80.5 -19.5t60.5 -53.5t38 -79t13 -97q0 -44 -11 -88t-34.5 -79t-60.5 -57t-90 -22zM210 428q22 0 37 11.5t24 29t13 38.5t4 41q0 42 -18 62.5
t-44 20.5q-41 0 -63 -29.5t-22 -77.5q0 -17 3 -34t11 -30.5t21.5 -22.5t33.5 -9zM791 -44q-44 0 -79.5 20t-60.5 55t-38 82t-13 101q0 49 13.5 92t39 75t61.5 51t81 19t80.5 -19.5t60.5 -53.5t38 -79t13 -97q0 -44 -11 -88t-34.5 -79t-60.5 -57t-90 -22zM793 93
q22 0 37 11.5t24 29t13 38.5t4 41q0 42 -18 62.5t-44 20.5q-41 0 -63 -29.5t-22 -77.5q0 -17 3 -34t11 -30.5t21.5 -22.5t33.5 -9z" />
    <glyph glyph-name="ampersand" unicode="&#x26;" horiz-adv-x="766" 
d="M729 88q-82 -57 -172 -82t-176 -25q-72 0 -136 15.5t-112 42.5t-76 63.5t-28 78.5q0 47 19 77t49.5 48.5t70 29.5t80.5 20q-90 35 -132 78t-42 86q0 33 24.5 64t72 54.5t117 37.5t158.5 14q86 0 173 -12l31 -162q-68 14 -130 24t-111 10q-48 0 -78 -12.5t-30 -42.5
t38 -41.5t97 -11.5q46 0 96 5t92 11l7 -169q-16 1 -31.5 1h-30.5q-56 0 -105.5 -5t-86.5 -17.5t-58.5 -33t-21.5 -51.5q0 -38 25 -54t64 -16q34 0 72 11l-21 11l5 106l293 12z" />
    <glyph glyph-name="quotesingle" unicode="'" horiz-adv-x="208" 
d="M50 510l-32 237l175 21l-25 -276z" />
    <glyph glyph-name="parenleft" unicode="(" horiz-adv-x="450" 
d="M342 -64q-62 22 -118.5 68t-99 107t-68 133.5t-25.5 146.5q0 60 16 118.5t49.5 112.5t85.5 101.5t123 84.5l106 -169q-97 -54 -144 -124t-47 -145q0 -81 53 -156.5t155 -129.5z" />
    <glyph glyph-name="parenright" unicode=")" horiz-adv-x="450" 
d="M22 84q102 54 155 129.5t53 156.5q0 75 -47 145t-144 124l106 169q71 -37 123 -84.5t85.5 -101.5t49.5 -112.5t16 -118.5q0 -74 -25.5 -146.5t-68 -133.5t-99 -107t-118.5 -68z" />
    <glyph glyph-name="asterisk" unicode="*" horiz-adv-x="572" 
d="M409 280l-111 134l-62 -157l-181 83l90 108l-135 52l75 159l128 -78l-33 150l178 13l-19 -146l140 76l82 -156l-141 -39l110 -101z" />
    <glyph glyph-name="plus" unicode="+" horiz-adv-x="463" 
d="M161 129l-9 125l-129 -5l-4 133l126 2l-7 126l201 15l1 -137l105 1l-9 -123l-94 -4l1 -132z" />
    <glyph glyph-name="comma" unicode="," horiz-adv-x="292" 
d="M34 -105l54 276l180 -21l-102 -237z" />
    <glyph glyph-name="hyphen" unicode="-" horiz-adv-x="404" 
d="M42 230l-14 159l325 46l16 -189z" />
    <glyph glyph-name="period" unicode="." horiz-adv-x="317" 
d="M159 -25q-21 0 -40.5 8t-35 23t-24.5 35t-9 44q0 22 8.5 42.5t23 36t34 24.5t42.5 9q21 0 40.5 -8.5t35 -23t24.5 -35t9 -44.5q0 -21 -8 -41t-22 -35.5t-34 -25t-44 -9.5z" />
    <glyph glyph-name="slash" unicode="/" horiz-adv-x="565" 
d="M-9 62l408 766l185 -115l-449 -765z" />
    <glyph glyph-name="zero" unicode="0" horiz-adv-x="668" 
d="M340 -30q-71 0 -127.5 32t-96 88t-60.5 131t-21 161q0 78 22 146.5t62.5 120t98 81.5t128.5 30q72 0 129 -31.5t96.5 -85.5t60.5 -126.5t21 -154.5q0 -70 -17 -140t-54.5 -126t-97 -91t-144.5 -35zM343 189q35 0 59 18t38.5 46t21 61.5t6.5 65.5q0 66 -28.5 99t-70.5 33
q-65 0 -100.5 -47t-35.5 -124q0 -26 5 -53t17.5 -49t34 -36t53.5 -14z" />
    <glyph glyph-name="one" unicode="1" horiz-adv-x="453" 
d="M179 -24l-45 427l-108 -43l-8 176l125 205l265 -42l-25 -729z" />
    <glyph glyph-name="two" unicode="2" horiz-adv-x="638" 
d="M98 -7l-42 183q43 13 89 36.5t84.5 52t63.5 60.5t25 62q0 23 -10 38.5t-26.5 25t-37.5 13.5t-44 4q-32 0 -63.5 -6t-52.5 -13l-24 318q12 0 24 0.5t25 0.5q100 0 190 -13.5t157.5 -42t107.5 -73.5t40 -107q0 -68 -25 -115t-69 -81.5t-103.5 -61t-128.5 -54.5l301 -23
l-7 -237z" />
    <glyph glyph-name="three" unicode="3" horiz-adv-x="669" 
d="M93 210q18 -18 42.5 -33t51.5 -26t55 -17t52 -6q34 0 56.5 13.5t22.5 45.5t-47 59.5t-130 44.5l-2 109q32 0 64 5t57.5 15t41 26t15.5 38q0 26 -25.5 36.5t-63.5 10.5q-30 0 -63.5 -5t-64 -12.5t-54 -15t-33.5 -13.5l-3 256q35 5 70 6.5t70 1.5q97 0 180 -16t143 -45.5
t94 -70.5t34 -91q0 -35 -15.5 -64t-44 -51.5t-67.5 -40t-85 -29.5q35 -18 63.5 -41t49 -49t31.5 -55t11 -57q0 -50 -30 -85.5t-76 -58t-99.5 -32.5t-100.5 -10q-39 0 -73.5 2.5t-67.5 9.5t-65 17.5t-66 27.5z" />
    <glyph glyph-name="four" unicode="4" horiz-adv-x="689" 
d="M400 -30l-15 164l-289 10l-75 74l219 501l253 52l85 -496l97 -5l-19 -146l-56 4l32 -128zM358 527l-160 -230l175 -10z" />
    <glyph glyph-name="five" unicode="5" horiz-adv-x="671" 
d="M99 141q14 -2 28 -3t30 -1q38 0 77.5 6t72 18t53.5 30.5t21 44.5q0 39 -26 55t-64 16q-25 0 -53.5 -5.5t-55.5 -15t-51 -22t-41 -25.5l-68 443l489 91l29 -184l-321 -29l22 -111q38 17 77 25.5t76 8.5q52 0 99 -16t81.5 -47.5t55 -77.5t20.5 -106q0 -62 -24.5 -112.5
t-71.5 -86.5t-114.5 -55.5t-154.5 -19.5q-35 0 -73 3.5t-80 10.5z" />
    <glyph glyph-name="six" unicode="6" horiz-adv-x="653" 
d="M541 541q-32 0 -66 -5t-66 -17t-59.5 -33t-46.5 -53q51 20 105 20q42 0 82 -15t71.5 -43.5t51 -71.5t19.5 -98q0 -60 -24.5 -108.5t-65.5 -83.5t-95 -54t-112 -19q-74 0 -131.5 26.5t-96.5 74t-59 112t-20 141.5q0 106 28 186.5t80.5 136t128 87t171.5 39.5zM484 213
q0 38 -30 62.5t-73 24.5q-34 0 -61 -22.5t-27 -59.5q0 -19 8 -35t21.5 -28t32 -18.5t39.5 -6.5q18 0 34 6.5t28.5 17.5t20 26t7.5 33z" />
    <glyph glyph-name="seven" unicode="7" horiz-adv-x="609" 
d="M78 24l272 493l-308 -13l5 257l528 -28l34 -195l-329 -583z" />
    <glyph glyph-name="eight" unicode="8" horiz-adv-x="713" 
d="M546 385q69 -22 104.5 -73t35.5 -114q0 -62 -28 -108t-74.5 -77.5t-106.5 -47t-125 -15.5q-60 0 -117.5 14t-102.5 42.5t-72.5 70.5t-27.5 99q0 43 13.5 77t37 60.5t56 44.5t70.5 29q-23 8 -44.5 23.5t-38 36.5t-26 45.5t-9.5 51.5q0 55 23 97t61 70t87.5 42.5
t103.5 14.5q51 0 101.5 -13.5t90 -41.5t64 -69.5t24.5 -98.5q0 -45 -22.5 -86.5t-77.5 -73.5zM485 540q0 32 -24.5 47.5t-53.5 15.5q-16 0 -31 -5t-27 -14t-19.5 -23t-7.5 -32q0 -31 22.5 -45.5t51.5 -14.5q17 0 33 5t28.5 14t20 22t7.5 30zM447 203q0 34 -26 53t-76 19
q-16 0 -35.5 -5.5t-36 -16t-27.5 -26.5t-11 -36q0 -33 26 -51t73 -18q50 0 81.5 23.5t31.5 57.5z" />
    <glyph glyph-name="nine" unicode="9" horiz-adv-x="651" 
d="M62 201q21 -2 39.5 -3.5t35.5 -1.5q49 0 84 9.5t58 27t37 42t21 53.5q-20 -9 -41 -13t-42 -4q-57 0 -99.5 17t-70.5 45.5t-42 65.5t-14 77q0 45 17.5 89.5t51.5 79.5t85 57t117 22t124.5 -26t103 -71t70.5 -104.5t26 -126.5q0 -117 -31 -206.5t-86 -150.5t-131 -92
t-167 -31q-22 0 -45 1.5t-46 5.5zM381 536q0 21 -8.5 37t-22 26.5t-31 16t-35.5 5.5q-46 0 -68.5 -24.5t-22.5 -54.5q0 -16 6.5 -31.5t19 -28t31 -20t43.5 -7.5q42 0 65 21.5t23 59.5z" />
    <glyph glyph-name="colon" unicode=":" horiz-adv-x="317" 
d="M159 335q-21 0 -40.5 8t-35 23t-24.5 35t-9 44q0 22 8.5 42.5t23 36t34 24.5t42.5 9q21 0 40.5 -8.5t35 -23t24.5 -35t9 -44.5q0 -21 -8 -41t-22 -35.5t-34 -25t-44 -9.5zM159 -25q-21 0 -40.5 8t-35 23t-24.5 35t-9 44q0 22 8.5 42.5t23 36t34 24.5t42.5 9
q21 0 40.5 -8.5t35 -23t24.5 -35t9 -44.5q0 -21 -8 -41t-22 -35.5t-34 -25t-44 -9.5z" />
    <glyph glyph-name="semicolon" unicode=";" horiz-adv-x="317" 
d="M28 -105l54 276l180 -21l-102 -237zM159 335q-21 0 -40.5 8t-35 23t-24.5 35t-9 44q0 22 8.5 42.5t23 36t34 24.5t42.5 9q21 0 40.5 -8.5t35 -23t24.5 -35t9 -44.5q0 -21 -8 -41t-22 -35.5t-34 -25t-44 -9.5z" />
    <glyph glyph-name="less" unicode="&#x3c;" horiz-adv-x="561" 
d="M313 -20l-296 385l384 402l139 -215l-280 -199l285 -271z" />
    <glyph glyph-name="equal" unicode="=" horiz-adv-x="446" 
d="M41 130l-15 152l412 42l-7 -182zM36 386l-14 157l394 47l5 -174z" />
    <glyph glyph-name="greater" unicode="&#x3e;" horiz-adv-x="561" 
d="M17 82l285 271l-280 199l139 215l384 -402l-296 -385z" />
    <glyph glyph-name="question" unicode="?" horiz-adv-x="572" 
d="M175 -38q-21 0 -40.5 8t-35 23t-24.5 35t-9 44q0 22 8.5 42.5t23 36t34 24.5t42.5 9q21 0 40.5 -8.5t35 -23t24.5 -35t9 -44.5q0 -21 -8 -41t-22 -35.5t-34 -25t-44 -9.5zM319 264q-36 -23 -73 -33t-71 -10q-29 0 -53.5 6.5t-42.5 18.5t-28 28t-10 35q0 35 19 55t47 32.5
t61 19.5t61 16.5t47 24.5t19 42q0 33 -35.5 59t-105.5 26q-20 0 -42.5 -2.5t-48.5 -8.5l-10 192q66 12 139 12q72 0 136 -12.5t112 -37.5t76 -62t28 -86q0 -47 -21 -77.5t-52 -51.5t-68 -34.5t-68 -24.5t-52 -22.5t-21 -28.5q0 -13 17 -13q8 0 18 4t15 10z" />
    <glyph glyph-name="at" unicode="@" 
d="M412 80q63 0 110.5 24.5t80 64.5t49 90t16.5 101q0 69 -18 127t-51 99.5t-80 64.5t-105 23q-72 0 -124.5 -24.5t-87 -65t-51.5 -93t-17 -107.5q0 -68 20 -123.5t56 -96t87.5 -62.5t114.5 -22zM406 -8q-90 0 -161 31.5t-119.5 86t-74.5 127t-26 154.5q0 79 29.5 147
t79.5 117.5t117 77.5t142 28q78 0 149.5 -26.5t125.5 -75t86.5 -118.5t32.5 -157q0 -76 -25 -147t-73.5 -125.5t-119.5 -87t-163 -32.5zM478 199l-26 102l-107 -4l-16 -88l-127 -7l113 418l143 11l149 -426zM392 504l-32 -130h73z" />
    <glyph glyph-name="A" unicode="A" horiz-adv-x="731" 
d="M499 -10l-47 183l-193 -7l-30 -159l-229 -12l205 755l258 21l269 -771zM343 541l-57 -236h131z" />
    <glyph glyph-name="B" unicode="B" horiz-adv-x="695" 
d="M21 706q63 20 134.5 31t143.5 11q66 0 122.5 -10.5t98.5 -30.5t65.5 -50t23.5 -70q0 -51 -33 -91t-93 -81q45 -4 83 -16t65 -33t42 -50.5t15 -69.5q0 -65 -44.5 -113t-115 -80t-157 -47.5t-169.5 -15.5q-75 0 -138 12zM275 154q34 1 64.5 7.5t54 18.5t37.5 28.5t14 37.5
q0 32 -26 45t-67 13q-25 0 -49 -4.5t-42 -12.5zM240 437q31 1 58.5 8.5t48 20t32.5 29t12 36.5q0 34 -27 51t-69 17q-17 0 -34.5 -4t-33.5 -12z" />
    <glyph glyph-name="C" unicode="C" horiz-adv-x="607" 
d="M594 20q-50 -17 -97 -25.5t-91 -8.5q-86 0 -157.5 28.5t-122.5 78t-79.5 115.5t-28.5 141q0 69 24.5 138t74 124t124.5 89.5t175 34.5q35 0 72.5 -7t78.5 -23l-62 -179q-18 9 -37 13t-37 4q-47 0 -81.5 -13.5t-57 -35t-33.5 -49.5t-11 -58q0 -43 12.5 -74.5t34.5 -51.5
t50.5 -30t60.5 -10q29 0 58.5 7.5t57.5 21.5z" />
    <glyph glyph-name="D" unicode="D" horiz-adv-x="731" 
d="M54 715q32 2 63 3.5t63 1.5q113 0 209 -22t165.5 -66.5t109 -110.5t39.5 -153q0 -58 -22 -110t-61.5 -96t-93 -79t-117 -59.5t-134.5 -37.5t-144 -13q-21 0 -42 1.5t-42 3.5zM238 202q56 0 98.5 15t70.5 39t42 54.5t14 62.5q0 29 -12 57t-36.5 49.5t-60.5 34.5t-84 13
q-4 0 -8 -0.5t-9 -0.5z" />
    <glyph glyph-name="E" unicode="E" horiz-adv-x="583" 
d="M84 2l-57 732l471 56l13 -173l-275 -32l10 -102l215 16l16 -159l-211 -18l15 -108l270 27l14 -246z" />
    <glyph glyph-name="F" unicode="F" horiz-adv-x="575" 
d="M47 -12l20 772l484 -20l-6 -210l-292 15v-118l228 -11l4 -188l-235 11l-2 -274z" />
    <glyph glyph-name="G" unicode="G" horiz-adv-x="818" 
d="M427 257l-3 146l369 17q2 -11 2 -21.5v-21.5q0 -109 -33 -187.5t-85.5 -129t-119 -74.5t-132.5 -24q-74 0 -145 28t-127.5 80.5t-91 128t-34.5 171.5q0 93 34 166t91.5 123.5t133.5 77.5t161 27q63 0 126.5 -14.5t126.5 -46.5l-91 -184q-41 20 -86.5 33.5t-90.5 13.5
q-35 0 -66.5 -10t-55 -33t-37.5 -60.5t-14 -92.5q0 -48 16.5 -87.5t42 -68.5t57 -45t61.5 -16q40 0 72 24t46 78z" />
    <glyph glyph-name="H" unicode="H" horiz-adv-x="650" 
d="M396 0l-3 263l-124 -12l-7 -273l-202 16l-12 719l226 12l-7 -309l125 3l-3 299l198 17l27 -740z" />
    <glyph glyph-name="I" unicode="I" horiz-adv-x="498" 
d="M35 15l14 182l84 -5l15 371h-80l-6 175l428 18l-4 -193h-99l-27 -388l72 -4l-13 -195z" />
    <glyph glyph-name="J" unicode="J" horiz-adv-x="694" 
d="M599 569q17 -77 17 -147q0 -111 -25 -194.5t-66.5 -139.5t-96 -84t-113.5 -28q-43 0 -86.5 15t-84.5 46t-77.5 77t-65.5 108l199 126q6 -23 19 -49.5t30.5 -49.5t39 -38t44.5 -15q21 0 35 13t22.5 34.5t12.5 50t4 60.5q0 55 -9 110t-22 89l-124 -8l-22 165l453 55
l10 -189z" />
    <glyph glyph-name="K" unicode="K" horiz-adv-x="720" 
d="M527 -29l-253 261l-28 -266l-163 36l-23 732l247 -6l-28 -297l204 284l229 -12l-266 -343l259 -256z" />
    <glyph glyph-name="L" unicode="L" horiz-adv-x="566" 
d="M84 -30l-45 777l253 20l-7 -581l263 21l7 -203z" />
    <glyph glyph-name="M" unicode="M" horiz-adv-x="1011" 
d="M731 2l-29 450l-160 -433l-111 7l-143 417l-29 -442l-235 39l122 725l246 -19l128 -351l138 329l251 9l72 -739z" />
    <glyph glyph-name="N" unicode="N" horiz-adv-x="737" 
d="M529 -31l-273 424l18 -404l-214 22l-18 677l233 44l198 -377l-15 381l251 14l-67 -758z" />
    <glyph glyph-name="O" unicode="O" 
d="M787 369q0 -87 -32.5 -157t-86.5 -118.5t-125.5 -75t-149.5 -26.5q-75 0 -142 28t-117 77.5t-79.5 117t-29.5 147.5q0 82 26 154.5t74.5 127t119.5 86t161 31.5q92 0 163 -32.5t119.5 -87t73.5 -125.5t25 -147zM409 180q33 0 60 13t46 37t29.5 57t10.5 73q0 29 -9.5 58
t-28 52t-46 37t-63.5 14t-65.5 -12.5t-50.5 -36t-32.5 -55.5t-11.5 -71q0 -32 9.5 -61.5t29.5 -53t50.5 -37.5t71.5 -14z" />
    <glyph glyph-name="P" unicode="P" horiz-adv-x="701" 
d="M92 -30l-57 756q57 22 119.5 32.5t123.5 10.5q200 0 304.5 -76.5t104.5 -218.5q0 -51 -24.5 -100t-73.5 -87t-123.5 -61.5t-173.5 -23.5l32 -216zM266 379q32 6 63.5 17t56 26.5t39.5 36t15 46.5q0 24 -8.5 41t-23.5 27.5t-35 15.5t-42 5q-47 0 -93 -19z" />
    <glyph glyph-name="Q" unicode="Q" horiz-adv-x="820" 
d="M590 89q-48 -56 -110 -89.5t-136 -33.5q-81 0 -140.5 29.5t-99 79t-58.5 114t-19 133.5q0 78 24.5 155.5t71.5 139t117 100t162 38.5q84 0 144.5 -26t98.5 -70t56 -102t18 -121q0 -47 -9 -94.5t-26 -92.5l133 -81l-130 -159zM380 265l72 125l89 -54q5 19 8.5 38t3.5 38
q0 27 -7 51.5t-22 43t-38.5 29t-56.5 10.5q-48 0 -85.5 -19.5t-63 -50.5t-38.5 -69.5t-13 -76.5q0 -30 8.5 -58t26.5 -49t45 -33.5t64 -12.5q42 0 80 27z" />
    <glyph glyph-name="R" unicode="R" horiz-adv-x="638" 
d="M445 -35l-120 279q-20 -11 -42 -20t-40 -15l23 -208l-218 -34l-19 763q52 12 107.5 18t110.5 6q71 0 136.5 -12t116 -38t80.5 -68t30 -102q0 -63 -36.5 -115.5t-102.5 -97.5l186 -246zM221 384q38 6 71.5 17.5t58 28t39 36.5t14.5 44q0 22 -7.5 36.5t-20.5 23t-30 12
t-36 3.5q-29 0 -59 -6t-52 -13z" />
    <glyph glyph-name="S" unicode="S" horiz-adv-x="711" 
d="M99 251q54 -38 108.5 -55t102.5 -17q58 0 95 23t37 65q0 31 -30.5 47t-76.5 25.5t-99.5 19.5t-99.5 29.5t-76.5 54t-30.5 95.5q0 70 31 115t80.5 71.5t112 37t126.5 10.5q51 0 98 -5t86 -12l-6 -183q-13 6 -33 11.5t-44 10.5t-50 8t-51 3q-45 0 -78 -13t-33 -46
q0 -19 18.5 -28t48.5 -13.5t68.5 -7.5t78.5 -10t78.5 -20.5t68.5 -40t48.5 -68.5t18.5 -105q0 -71 -31 -123t-82 -85.5t-116.5 -49.5t-134.5 -16q-51 0 -100.5 8.5t-94.5 24.5t-82.5 39.5t-63.5 54.5z" />
    <glyph glyph-name="T" unicode="T" horiz-adv-x="645" 
d="M203 -40l15 544l-192 -13l1 267l600 -36l-5 -190l-222 -15l20 -531z" />
    <glyph glyph-name="U" unicode="U" horiz-adv-x="700" 
d="M649 758q8 -53 12.5 -111.5t4.5 -120.5q0 -69 -6.5 -137.5t-21 -131.5t-38.5 -117.5t-58.5 -94.5t-80.5 -63t-105 -23q-82 0 -142.5 46.5t-100.5 126t-59.5 184t-19.5 221.5q0 54 5.5 116.5t13.5 110.5l232 -25q-6 -20 -10.5 -45t-7 -51t-4 -52.5t-1.5 -48.5
q0 -69 6.5 -126t20 -97.5t35 -63t50.5 -22.5q33 0 55 21t35.5 59.5t19.5 91.5t6 116t-5.5 118t-13.5 103z" />
    <glyph glyph-name="V" unicode="V" horiz-adv-x="637" 
d="M172 -1l-175 732l232 32l84 -485l104 480l223 -19l-259 -760z" />
    <glyph glyph-name="W" unicode="W" horiz-adv-x="914" 
d="M482 2l-53 331l-106 -331l-195 -41l-139 774l260 46l41 -405l93 287l132 9l59 -320l138 417l221 -73l-277 -733z" />
    <glyph glyph-name="X" unicode="X" horiz-adv-x="710" 
d="M482 -30l-138 210l-162 -226l-178 128l237 238l-241 318l200 146l192 -272l172 260l182 -109l-254 -285l253 -311z" />
    <glyph glyph-name="Y" unicode="Y" horiz-adv-x="727" 
d="M249 -39l-4 362l-279 364l274 93l164 -292l163 290l183 -69l-258 -393l3 -334z" />
    <glyph glyph-name="Z" unicode="Z" horiz-adv-x="773" 
d="M18 22l352 538l-305 -16l3 191l685 31l-333 -561l307 11l-4 -257z" />
    <glyph glyph-name="bracketleft" unicode="[" horiz-adv-x="470" 
d="M40 -146l-16 912l399 4v-186l-175 -11l10 -550l178 1l-9 -171z" />
    <glyph glyph-name="backslash" unicode="\" horiz-adv-x="565" 
d="M428 -52l-437 621l185 115l396 -622z" />
    <glyph glyph-name="bracketright" unicode="]" horiz-adv-x="470" 
d="M33 -147l-9 171l178 -1l10 550l-175 11v186l399 -4l-16 -912z" />
    <glyph glyph-name="asciicircum" unicode="^" horiz-adv-x="467" 
d="M300 327l-94 120l-93 -119l-102 75l133 213l154 24l159 -181z" />
    <glyph glyph-name="underscore" unicode="_" horiz-adv-x="423" 
d="M5 -76l-5 133l424 8l-9 -122z" />
    <glyph glyph-name="grave" unicode="`" horiz-adv-x="342" 
d="M231 795l-181 96l100 114l142 -149z" />
    <glyph glyph-name="a" unicode="a" horiz-adv-x="719" 
d="M502 -31l-46 153l-198 -14l-33 -151l-226 43l239 766l213 -7l270 -727zM343 498l-57 -243l128 8z" />
    <glyph glyph-name="b" unicode="b" horiz-adv-x="701" 
d="M43 728q22 6 53 11t65.5 9t70.5 6t68 2q59 0 115.5 -8.5t101 -28t71.5 -52t27 -80.5q0 -26 -11.5 -49t-32 -44.5t-48.5 -41t-61 -37.5q45 -7 85.5 -21.5t72 -36t50 -50t18.5 -63.5q0 -69 -38 -117.5t-99 -79t-136 -44.5t-149 -14q-24 0 -51.5 1.5t-55 4t-52.5 6t-43 8.5z
M244 474q5 -1 10 -1.5t11 -0.5q15 0 35 6t38 17t30.5 26.5t12.5 35.5q0 32 -25 45.5t-56 13.5q-33 0 -60 -11zM252 160q12 -2 27.5 -4t33.5 -2q24 0 48 3.5t44 13t32.5 25.5t12.5 40q0 21 -9 35.5t-24 23.5t-34.5 12.5t-40.5 3.5q-26 0 -50.5 -4.5t-42.5 -11.5z" />
    <glyph glyph-name="c" unicode="c" horiz-adv-x="517" 
d="M491 -25q-22 -3 -42.5 -4t-40.5 -1q-99 0 -171 30.5t-119 80.5t-69.5 115.5t-22.5 134.5q0 76 26 151.5t76.5 134.5t123 96t165.5 37q27 0 54 -3l20 -255q-55 0 -97 -12.5t-70.5 -33.5t-43 -48.5t-14.5 -58.5q0 -26 12.5 -44t32 -29t44.5 -16.5t51 -5.5q49 0 86 16z" />
    <glyph glyph-name="d" unicode="d" horiz-adv-x="750" 
d="M37 719q39 8 81 12t86 4q128 0 226.5 -28.5t165 -79.5t101 -121t34.5 -152q0 -70 -34 -136.5t-104 -118.5t-176.5 -84t-251.5 -32q-47 0 -92 6zM277 221q9 -1 18 -1.5t17 -0.5q94 0 151 35.5t57 106.5q0 70 -63.5 111t-173.5 43z" />
    <glyph glyph-name="e" unicode="e" horiz-adv-x="537" 
d="M62 -39l-39 758l483 47l4 -242l-302 -23l4 -89l247 22l9 -140l-246 -26l4 -100l285 35l14 -169z" />
    <glyph glyph-name="f" unicode="f" horiz-adv-x="521" 
d="M32 -36l20 787l463 -14l6 -181l-264 9l-6 -136l203 -7l-7 -163l-204 12l-10 -292z" />
    <glyph glyph-name="g" unicode="g" horiz-adv-x="688" 
d="M449 263l-89 5l-5 130l312 6q0 -85 -8 -152.5t-24.5 -122t-42.5 -98.5t-62 -81q-110 14 -203.5 53.5t-161 99t-105.5 134.5t-38 161q0 68 34 132t94.5 113.5t145 79t185.5 29.5q40 0 73 -5t73 -16l-35 -243q-28 16 -67 24.5t-82 8.5q-41 0 -80.5 -8.5t-71 -26t-51 -45
t-19.5 -65.5q0 -74 61.5 -124t170.5 -75z" />
    <glyph glyph-name="h" unicode="h" horiz-adv-x="674" 
d="M391 2l15 294l-150 -33l7 -276l-189 8l-54 717l224 28l7 -284l163 5l15 294l209 -13l-21 -750z" />
    <glyph glyph-name="i" unicode="i" horiz-adv-x="324" 
d="M40 -34l16 780l233 4l-18 -775z" />
    <glyph glyph-name="j" unicode="j" horiz-adv-x="657" 
d="M213 303q2 -22 10.5 -40t21 -30.5t28.5 -19.5t32 -7t32 8t28 25.5t19.5 44.5t7.5 66q0 48 -9 103.5t-21 106.5t-25 92t-20 61l253 62q32 -91 47 -183.5t15 -170.5q0 -102 -20 -186.5t-58 -144.5t-93 -93.5t-126 -33.5q-51 0 -100.5 18.5t-93.5 52.5t-80 82.5t-61 107.5z
" />
    <glyph glyph-name="k" unicode="k" horiz-adv-x="706" 
d="M555 -57l-294 317l-4 -264l-196 -29l-32 770l250 15l-19 -264l225 296l172 -114l-227 -298l293 -280z" />
    <glyph glyph-name="l" unicode="l" horiz-adv-x="554" 
d="M76 -30l-37 779l228 8l-6 -547l276 35l6 -242z" />
    <glyph glyph-name="m" unicode="m" horiz-adv-x="903" 
d="M645 -6l-35 407l-128 -327l-88 -15l-103 321l-76 -400l-207 49l159 730l157 5l127 -370l152 368l166 -17l122 -740z" />
    <glyph glyph-name="n" unicode="n" horiz-adv-x="693" 
d="M533 -25l-263 408l59 -400l-273 -31l-16 799l169 -6l219 -299l-45 327l246 -28l28 -758z" />
    <glyph glyph-name="o" unicode="o" horiz-adv-x="780" 
d="M386 -29q-77 0 -143 31.5t-114.5 85.5t-76 125.5t-27.5 151.5q0 81 28 154t76.5 128.5t115 88t144.5 32.5q79 0 146 -31.5t116 -85.5t76.5 -127t27.5 -156q0 -79 -28.5 -151t-78 -126.5t-117 -87t-145.5 -32.5zM391 180q34 0 60 14t44 38t27.5 55t9.5 66t-10 66t-28 54.5
t-43.5 37.5t-56.5 14q-34 0 -62 -14.5t-48.5 -38.5t-31.5 -55.5t-11 -66.5q0 -36 9 -67t27.5 -54t46.5 -36t67 -13z" />
    <glyph glyph-name="p" unicode="p" horiz-adv-x="602" 
d="M44 -24l-19 734q55 22 116 30.5t126 8.5q74 0 137 -15t108.5 -45t71.5 -74t26 -102q0 -67 -23.5 -123t-70 -97.5t-115.5 -66t-161 -28.5l7 -223zM235 363q7 -1 13.5 -1h12.5q41 0 73 10t53.5 26t33 36t11.5 40q0 32 -30 56t-94 24q-20 0 -40.5 -3t-37.5 -9z" />
    <glyph glyph-name="q" unicode="q" horiz-adv-x="781" 
d="M606 67q-48 -45 -105.5 -70t-115.5 -25q-74 0 -137 32.5t-109 87.5t-72 127.5t-26 152.5q0 78 26 149t72 125.5t110 86.5t141 32q70 0 133.5 -32.5t110.5 -86.5t75 -124t28 -145q0 -45 -8 -85t-22 -77l122 -80l-134 -166zM369 329l58 71l109 -72q11 27 11 60q0 40 -13 74
t-35 59t-51 39t-61 14t-59.5 -13.5t-47.5 -36t-31.5 -52t-11.5 -61.5q0 -39 13 -71.5t35.5 -56t51.5 -37t62 -13.5q24 0 48 9z" />
    <glyph glyph-name="r" unicode="r" horiz-adv-x="637" 
d="M411 -18l-115 271l-60 -8l14 -265h-211l2 755q19 6 44.5 10t53 6.5t54.5 4t50 1.5q94 0 165 -21t118 -55.5t70.5 -79t23.5 -91.5q0 -62 -39.5 -120t-119.5 -96l159 -280zM230 384q38 0 67 9t48.5 23.5t29 32.5t9.5 37q0 17 -8 33t-24.5 28.5t-40.5 20t-57 7.5h-17t-17 -2
z" />
    <glyph glyph-name="s" unicode="s" horiz-adv-x="683" 
d="M121 211q40 -35 81 -50t78 -15q28 0 53 6.5t43.5 18.5t29 28.5t10.5 37.5q0 24 -28 35.5t-70.5 20t-91.5 19t-91.5 33t-70.5 62t-28 105.5q0 68 37 116t93.5 78.5t122.5 44.5t125 14q48 0 97.5 -8.5t97.5 -28.5l-69 -177q-35 20 -71.5 29t-70.5 9q-29 0 -54 -5.5
t-43.5 -16t-29.5 -25t-11 -32.5q0 -19 17 -29.5t45 -17t64 -12t73 -14.5t73 -24t64 -40t45 -63.5t17 -94.5q0 -54 -28.5 -99.5t-76.5 -77.5t-110 -50t-128 -18q-80 0 -158 28.5t-138 91.5z" />
    <glyph glyph-name="t" unicode="t" horiz-adv-x="574" 
d="M179 -13l5 548l-163 -4l-20 185l579 36l1 -200l-159 -7l-33 -579z" />
    <glyph glyph-name="u" unicode="u" horiz-adv-x="704" 
d="M672 741q5 -42 7.5 -86t2.5 -92q0 -125 -16.5 -234t-53.5 -191t-97 -129t-147 -47q-79 0 -142 53t-107 141.5t-67.5 204.5t-23.5 241q0 35 2 69.5t6 69.5l263 -22q-4 -25 -6.5 -67t-2.5 -88q0 -77 5.5 -139t18 -106.5t32 -68.5t47.5 -24q29 0 49.5 19t33 54t18.5 85
t6 112t-6.5 125.5t-17.5 121.5z" />
    <glyph glyph-name="v" unicode="v" horiz-adv-x="640" 
d="M207 -14l-207 708l237 68l79 -518l129 525l214 -58l-260 -721z" />
    <glyph glyph-name="w" unicode="w" horiz-adv-x="868" 
d="M481 -20l-88 305l-90 -296l-156 -24l-138 761l211 21l57 -372l73 299l119 -1l70 -344l123 417l229 -57l-260 -729z" />
    <glyph glyph-name="x" unicode="x" horiz-adv-x="763" 
d="M579 -7l-192 197l-158 -237l-245 137l249 261l-251 268l185 114l200 -209l177 260l221 -111l-239 -294l250 -211z" />
    <glyph glyph-name="y" unicode="y" horiz-adv-x="701" 
d="M234 -14l10 302l-264 342l204 139l193 -288l144 282l198 -73l-228 -401l4 -308z" />
    <glyph glyph-name="z" unicode="z" horiz-adv-x="705" 
d="M37 -5v146l340 403l-306 -20l4 216l523 16l72 -152l-316 -425l305 23l11 -207h-633z" />
    <glyph glyph-name="braceleft" unicode="{" horiz-adv-x="505" 
d="M507 -82q-52 -25 -89 -33.5t-72 -8.5q-43 0 -79 13t-62.5 37t-41 58.5t-14.5 78.5q0 27 2 52.5t2 47.5q0 57 -42.5 91t-117.5 40l15 139q25 -5 41 -5q51 0 74.5 29.5t23.5 77.5q0 17 -1.5 34t-1.5 36q0 44 14.5 81.5t41.5 65.5t64.5 43.5t83.5 15.5q21 0 54.5 -4
t68.5 -24l-8 -126q-3 1 -10.5 4t-16 5.5t-17 4.5t-12.5 2q-22 0 -37.5 -10t-25.5 -25t-14.5 -34t-4.5 -37q0 -23 2 -45t2 -42q-1 -47 -28 -80t-77 -36q67 -18 92.5 -57t25.5 -100q0 -20 -0.5 -37.5t-0.5 -33.5q0 -18 5 -36t15 -31.5t25.5 -22t37.5 -8.5q14 0 34 3.5t41 19.5
z" />
    <glyph glyph-name="bar" unicode="|" horiz-adv-x="294" 
d="M74 -62l-51 811l248 -19l-26 -775z" />
    <glyph glyph-name="braceright" unicode="}" horiz-adv-x="505" 
d="M1 51q21 -16 41 -19.5t34 -3.5q22 0 37.5 8.5t25.5 22t15 31.5t5 36q0 16 -0.5 33.5t-0.5 37.5q0 61 25.5 100t92.5 57q-50 3 -77 36t-28 80q0 20 2 42t2 45q0 18 -4.5 37t-14.5 34t-25.5 25t-37.5 10q-5 0 -13 -2t-16.5 -4.5t-16 -5.5t-10.5 -4l-8 126q35 20 68.5 24
t54.5 4q46 0 83.5 -15.5t64.5 -43.5t41.5 -65.5t14.5 -81.5q0 -19 -1.5 -36t-1.5 -34q0 -48 23.5 -77.5t74.5 -29.5q16 0 41 5l15 -139q-75 -6 -117.5 -40t-42.5 -91q0 -22 2 -47.5t2 -52.5q0 -44 -15 -78.5t-41 -58.5t-62 -37t-79 -13q-35 0 -72 8.5t-89 33.5z" />
    <glyph glyph-name="asciitilde" unicode="~" horiz-adv-x="565" 
d="M549 572q0 -41 -8.5 -84t-27 -78t-47.5 -57t-71 -22q-30 0 -60 11.5t-57.5 25t-51 25t-40.5 11.5q-23 0 -37 -16.5t-27 -43.5l-105 48q0 33 13.5 66.5t36 61t52.5 44.5t64 17q26 0 47.5 -11.5t40.5 -25t37 -25t37 -11.5q32 0 50 27t26 73z" />
    <glyph glyph-name="uni00A0" unicode="&#xa0;" horiz-adv-x="400" 
 />
    <glyph glyph-name="exclamdown" unicode="&#xa1;" horiz-adv-x="327" 
d="M185 458q-21 0 -41 8t-35.5 23t-25 35.5t-9.5 45.5q0 21 7.5 40.5t21.5 35t33.5 25t43.5 9.5q22 0 42 -8.5t35.5 -23.5t24.5 -35t9 -43q0 -22 -8 -42t-22 -35.5t-33.5 -25t-42.5 -9.5zM19 -82l60 491l188 -16l27 -475h-275z" />
    <glyph glyph-name="cent" unicode="&#xa2;" horiz-adv-x="512" 
d="M251 23l-1 58q-49 14 -88.5 41t-67.5 63.5t-43 80.5t-15 93q0 45 13 89.5t38.5 84t64 70.5t90.5 48l-1 66l101 17l-2 -66q4 0 7.5 0.5t7.5 0.5q28 0 58.5 -5.5t62.5 -18.5l-50 -144q-14 8 -29.5 11t-29.5 3q-38 0 -65.5 -10.5t-45.5 -28t-27 -40t-9 -46.5q0 -35 10.5 -60
t27.5 -41.5t40 -24.5t49 -8q23 0 46.5 6t46.5 18l58 -185q-80 -27 -151 -27h-12t-12 1l-2 -62z" />
    <glyph glyph-name="sterling" unicode="&#xa3;" horiz-adv-x="598" 
d="M11 -14l-10 179l94 7q-5 22 -9.5 43.5t-7.5 42.5l-68 -2l-12 131l75 7q4 86 26 154.5t61 116.5t94 74t125 26q52 0 104 -22t100 -67l-150 -171q-16 18 -34 29t-38 11q-18 0 -31.5 -10.5t-22.5 -28.5t-14 -42t-6 -51l228 21l2 -164l-220 -6q5 -26 10 -48t11 -38l261 14
l-8 -185z" />
    <glyph glyph-name="currency" unicode="&#xa4;" horiz-adv-x="637" 
d="M624 20q-50 -17 -97 -25.5t-91 -8.5q-75 0 -139 22t-113 60t-82 90.5t-46 113.5l-55 -3l-14 62l61 5v13v14t1 14l-46 -3l-13 65l70 6q14 57 45 109.5t79 92.5t113.5 64t148.5 24q35 0 72.5 -7t78.5 -23l-62 -179q-18 9 -37 13t-37 4q-63 0 -102.5 -22t-59.5 -56l217 19
l-5 -72l-233 -18v-7v-16t2 -16l216 19l-6 -75l-187 -12q21 -34 56 -50t77 -16q29 0 58.5 7.5t57.5 21.5z" />
    <glyph glyph-name="yen" unicode="&#xa5;" horiz-adv-x="701" 
d="M493 152l2 -171l-261 5l5 160l-210 -4l-11 160l208 9l-246 319l204 139l193 -288l144 282l198 -73l-208 -366l183 9l1 -177z" />
    <glyph glyph-name="brokenbar" unicode="&#xa6;" horiz-adv-x="1144" 
d="M49 295l-28 119q28 9 58 24t55 34t41.5 39.5t16.5 40.5q0 30 -23.5 41t-53.5 11q-21 0 -41 -3.5t-34 -8.5l-16 207h32q65 0 123.5 -8.5t102.5 -27.5t70 -48t26 -69q0 -45 -16.5 -75.5t-45 -53t-67 -39.5t-83.5 -35l195 -15l-4 -154zM761 112q12 -11 28 -21t33.5 -17
t35.5 -11t34 -4q22 0 36.5 9t14.5 30q0 20 -30.5 38t-84.5 29l-1 71q21 0 41.5 3t37 10t27 17t10.5 25q0 17 -17 23.5t-41 6.5q-20 0 -41.5 -3.5t-41.5 -8t-35.5 -9.5t-21.5 -9l-2 167q23 3 45.5 4t45.5 1q63 0 117 -10.5t93 -29.5t61 -45.5t22 -59.5q0 -46 -38.5 -75
t-98.5 -45q45 -23 72.5 -58.5t27.5 -73.5q0 -33 -19.5 -56t-49 -37.5t-64.5 -21t-66 -6.5q-51 0 -91 8t-85 29zM275 39l444 753l128 -79l-449 -765z" />
    <glyph glyph-name="section" unicode="&#xa7;" 
d="M408 232q36 0 63.5 14t46 37t28 52t9.5 58q0 40 -10.5 73t-29.5 57t-46 37t-60 13q-41 0 -71.5 -14t-50.5 -37.5t-29.5 -53.5t-9.5 -61q0 -39 11.5 -71t32.5 -55.5t50.5 -36t65.5 -12.5zM406 -8q-90 0 -161 31.5t-119.5 86t-74.5 127t-26 154.5q0 79 29.5 147t79.5 117.5
t117 77.5t142 28q78 0 149.5 -26.5t125.5 -75t86.5 -118.5t32.5 -157q0 -76 -25 -147t-73.5 -125.5t-119.5 -87t-163 -32.5z" />
    <glyph glyph-name="dieresis" unicode="&#xa8;" horiz-adv-x="432" 
d="M314 805q-29 0 -49 21t-20 50t20 50t49 21q28 0 48 -21t20 -50t-20 -50t-48 -21zM119 805q-29 0 -49 21t-20 50t20 50t49 21q28 0 48 -21t20 -50t-20 -50t-48 -21z" />
    <glyph glyph-name="copyright" unicode="&#xa9;" 
d="M412 80q63 0 110.5 24.5t80 64.5t49 90t16.5 101q0 69 -18 127t-51 99.5t-80 64.5t-105 23q-72 0 -124.5 -24.5t-87 -65t-51.5 -93t-17 -107.5q0 -68 20 -123.5t56 -96t87.5 -62.5t114.5 -22zM406 -8q-90 0 -161 31.5t-119.5 86t-74.5 127t-26 154.5q0 79 29.5 147
t79.5 117.5t117 77.5t142 28q78 0 149.5 -26.5t125.5 -75t86.5 -118.5t32.5 -157q0 -76 -25 -147t-73.5 -125.5t-119.5 -87t-163 -32.5zM551 173q-62 -21 -116 -21q-53 0 -96.5 17.5t-74.5 48t-48.5 71t-17.5 86.5q0 42 15 84.5t45.5 76t76 54.5t107.5 21q21 0 44 -4t48 -14
l-38 -110q-11 6 -22.5 8.5t-22.5 2.5q-29 0 -50 -8t-35 -21.5t-20.5 -31t-6.5 -35.5q0 -53 28.5 -77.5t67.5 -24.5q18 0 36.5 5t35.5 13z" />
    <glyph glyph-name="ordfeminine" unicode="&#xaa;" horiz-adv-x="819" 
d="M548 -4l1 65q-32 -32 -79.5 -51.5t-97.5 -19.5q-75 0 -138.5 29.5t-110 80.5t-72.5 118.5t-26 143.5q0 82 24 153.5t70 124.5t113.5 83.5t153.5 30.5q45 0 93.5 -13t83.5 -50l1 65l223 4l-18 -755zM410 178q36 0 64.5 14t49 39.5t31.5 61t11 78.5q0 31 -10 62t-30 55.5
t-49.5 39.5t-67.5 15q-39 0 -71 -13.5t-54.5 -38.5t-34.5 -59t-12 -76q0 -34 10.5 -66t32 -57t54 -40t76.5 -15z" />
    <glyph glyph-name="guillemotleft" unicode="&#xab;" horiz-adv-x="615" 
d="M498 176l-204 198l195 221l107 -111l-101 -105l106 -102zM282 117l-267 257l253 282l107 -111l-159 -166l169 -161z" />
    <glyph glyph-name="logicalnot" unicode="&#xac;" horiz-adv-x="818" 
d="M261 299q4 -37 19.5 -63t38.5 -43t52 -25t61 -8q22 0 52 3t64 12t71 26t73 45l91 -184q-45 -30 -91 -49.5t-90.5 -30.5t-84 -15.5t-70.5 -4.5q-85 0 -161 27t-133.5 77.5t-91.5 123.5t-34 166q0 96 34.5 171.5t91 128t127.5 80.5t145 28q66 0 132.5 -24t119 -74.5
t85.5 -129t33 -187.5v-21.5t-2 -21.5zM436 573q-20 0 -42.5 -5t-43.5 -18.5t-39.5 -38t-31.5 -63.5l275 23q-14 54 -46 78t-72 24z" />
    <glyph glyph-name="uni00AD" unicode="&#xad;" horiz-adv-x="404" 
d="M42 230l-14 159l325 46l16 -189z" />
    <glyph glyph-name="registered" unicode="&#xae;" 
d="M412 80q63 0 110.5 24.5t80 64.5t49 90t16.5 101q0 69 -18 127t-51 99.5t-80 64.5t-105 23q-72 0 -124.5 -24.5t-87 -65t-51.5 -93t-17 -107.5q0 -68 20 -123.5t56 -96t87.5 -62.5t114.5 -22zM406 -8q-90 0 -161 31.5t-119.5 86t-74.5 127t-26 154.5q0 79 29.5 147
t79.5 117.5t117 77.5t142 28q78 0 149.5 -26.5t125.5 -75t86.5 -118.5t32.5 -157q0 -76 -25 -147t-73.5 -125.5t-119.5 -87t-163 -32.5zM494 160l-68 158q-24 -13 -47 -20l13 -117l-123 -20l-11 431q29 7 60.5 10t63.5 3q40 0 77 -6.5t65.5 -21.5t45.5 -38.5t17 -57.5
q0 -35 -20.5 -64.5t-58.5 -55.5l105 -139zM367 397q43 7 73 25.5t30 45.5q0 24 -15.5 33t-37.5 9q-17 0 -33.5 -3.5t-29.5 -7.5z" />
    <glyph glyph-name="macron" unicode="&#xaf;" horiz-adv-x="526" 
d="M54 800l-4 146l426 7l-9 -136z" />
    <glyph glyph-name="degree" unicode="&#xb0;" horiz-adv-x="425" 
d="M213 500q18 0 31.5 7t23 18.5t14 25.5t4.5 29q0 39 -19.5 63.5t-52.5 24.5q-41 0 -60.5 -25t-19.5 -56q0 -38 22 -62.5t57 -24.5zM212 383q-44 0 -79 15.5t-59 42t-36.5 62t-12.5 76.5q0 39 14.5 72.5t39 57.5t57.5 38t70 14q38 0 73 -13t62 -37t43 -58.5t16 -77.5
q0 -38 -12.5 -72.5t-36.5 -61t-59 -42.5t-80 -16z" />
    <glyph glyph-name="plusminus" unicode="&#xb1;" horiz-adv-x="463" 
d="M27 61l-4 133l426 7l-9 -123zM160 249l-9 125l-129 -5l-4 133l126 2l-7 126l201 15l1 -137l105 1l-9 -123l-94 -4l1 -132z" />
    <glyph glyph-name="uni00B2" unicode="&#xb2;" horiz-adv-x="415" 
d="M60 281l-28 119q28 9 58 24t55 34t41.5 39.5t16.5 40.5q0 30 -23.5 41t-53.5 11q-21 0 -41 -3.5t-34 -8.5l-16 207h32q65 0 123.5 -8.5t102.5 -27.5t70 -48t26 -69q0 -45 -16.5 -75.5t-45 -53t-67 -39.5t-83.5 -35l195 -15l-4 -154z" />
    <glyph glyph-name="uni00B3" unicode="&#xb3;" horiz-adv-x="435" 
d="M57 436q12 -11 28 -21t33.5 -17t35.5 -11t34 -4q22 0 36.5 9t14.5 30q0 20 -30.5 38t-84.5 29l-1 71q21 0 41.5 3t37 10t27 17t10.5 25q0 17 -17 23.5t-41 6.5q-20 0 -41.5 -3.5t-41.5 -8t-35.5 -9.5t-21.5 -9l-2 167q23 3 45.5 4t45.5 1q63 0 117 -10.5t93 -29.5
t61 -45.5t22 -59.5q0 -46 -38.5 -75t-98.5 -45q45 -23 72.5 -58.5t27.5 -73.5q0 -33 -19.5 -56t-49 -37.5t-64.5 -21t-66 -6.5q-51 0 -91 8t-85 29z" />
    <glyph glyph-name="acute" unicode="&#xb4;" horiz-adv-x="350" 
d="M50 831l102 181l148 -48l-166 -168z" />
    <glyph glyph-name="uni00B5" unicode="&#xb5;" horiz-adv-x="324" 
d="M175 523q-26 0 -49.5 10t-41.5 27.5t-29 41.5t-11 53q0 27 10 51t27 42.5t41 29.5t51 11q25 0 48.5 -10t42 -27.5t29.5 -42t11 -53.5q0 -26 -9.5 -49.5t-26.5 -42.5t-41 -30t-52 -11zM283 476l-12 -501l-231 -9l11 506z" />
    <glyph glyph-name="paragraph" unicode="&#xb6;" horiz-adv-x="598" 
d="M426 -124l15 818l120 -41l-11 -771zM237 -130l7 328q-53 10 -93.5 38t-67.5 67.5t-41 87t-14 95.5t14 93t42.5 79.5t71 55.5t100.5 21q29 0 62 -5.5t71 -19.5l-19 -834z" />
    <glyph glyph-name="periodcentered" unicode="&#xb7;" horiz-adv-x="317" 
d="M159 263q-21 0 -40.5 8t-35 23t-24.5 35t-9 44q0 22 8.5 42.5t23 36t34 24.5t42.5 9q21 0 40.5 -8.5t35 -23t24.5 -35t9 -44.5q0 -21 -8 -41t-22 -35.5t-34 -25t-44 -9.5z" />
    <glyph glyph-name="cedilla" unicode="&#xb8;" horiz-adv-x="544" 
d="M218 -159q8 -3 21 -5.5t31 -2.5q17 0 28.5 7t11.5 25q0 15 -9.5 24.5t-24.5 15.5t-33.5 10t-36.5 7l28 96l105 -10l-16 -49q12 -2 36.5 -7.5t49 -18t42.5 -34t18 -55.5q0 -62 -38.5 -95.5t-98.5 -33.5q-39 0 -77 10.5t-60 18.5z" />
    <glyph glyph-name="uni00B9" unicode="&#xb9;" horiz-adv-x="294" 
d="M123 280l-29 278l-70 -28l-5 114l81 134l172 -28l-16 -474z" />
    <glyph glyph-name="ordmasculine" unicode="&#xba;" horiz-adv-x="452" 
d="M231 441q27 0 41.5 19.5t14.5 42.5q0 30 -15 48.5t-41 18.5q-31 0 -46.5 -19t-15.5 -42q0 -30 17 -49t45 -19zM230 305q-44 0 -79 15.5t-59 42t-36.5 62t-12.5 76.5q0 39 14.5 72.5t39 57.5t57.5 38t70 14q38 0 73 -13t62 -37t43 -58.5t16 -77.5q0 -38 -12.5 -72.5
t-36.5 -61t-59 -42.5t-80 -16zM84 64l-14 159l325 46l16 -189z" />
    <glyph glyph-name="guillemotright" unicode="&#xbb;" horiz-adv-x="615" 
d="M334 117l-103 101l169 161l-159 166l107 111l253 -282zM118 176l-103 101l106 102l-101 105l107 111l195 -221z" />
    <glyph glyph-name="onequarter" unicode="&#xbc;" horiz-adv-x="965" 
d="M175 39l444 753l128 -79l-449 -765zM126 280l-29 278l-70 -28l-5 114l81 134l172 -28l-16 -474zM775 -34l-10 107l-188 7l-48 48l142 325l164 34l56 -322l63 -4l-13 -94l-36 2l21 -83zM748 329l-104 -150l113 -6z" />
    <glyph glyph-name="onehalf" unicode="&#xbd;" horiz-adv-x="1019" 
d="M126 280l-29 278l-70 -28l-5 114l81 134l172 -28l-16 -474zM665 -38l-28 119q28 9 58 24t55 34t41.5 39.5t16.5 40.5q0 30 -23.5 41t-53.5 11q-21 0 -41 -3.5t-34 -8.5l-16 207h32q65 0 123.5 -8.5t102.5 -27.5t70 -48t26 -69q0 -45 -16.5 -75.5t-45 -53t-67 -39.5
t-83.5 -35l195 -15l-4 -154zM175 39l444 753l128 -79l-449 -765z" />
    <glyph glyph-name="threequarters" unicode="&#xbe;" horiz-adv-x="1045" 
d="M54 437q12 -11 28 -21t33.5 -17t35.5 -11t34 -4q22 0 36.5 9t14.5 30q0 20 -30.5 38t-84.5 29l-1 71q21 0 41.5 3t37 10t27 17t10.5 25q0 17 -17 23.5t-41 6.5q-20 0 -41.5 -3.5t-41.5 -8t-35.5 -9.5t-21.5 -9l-2 167q23 3 45.5 4t45.5 1q63 0 117 -10.5t93 -29.5
t61 -45.5t22 -59.5q0 -46 -38.5 -75t-98.5 -45q45 -23 72.5 -58.5t27.5 -73.5q0 -33 -19.5 -56t-49 -37.5t-64.5 -21t-66 -6.5q-51 0 -91 8t-85 29zM828 329l-104 -150l113 -6zM855 -34l-10 107l-188 7l-48 48l142 325l164 34l56 -322l63 -4l-13 -94l-36 2l21 -83zM255 39
l444 753l128 -79l-449 -765z" />
    <glyph glyph-name="questiondown" unicode="&#xbf;" horiz-adv-x="541" 
d="M387 455q-21 0 -40.5 8.5t-35 23t-24.5 35t-9 44.5q0 21 8 41t22 35.5t34 25t44 9.5q21 0 40.5 -8t35 -23t24.5 -35t9 -44q0 -22 -8.5 -42.5t-23 -36t-34 -24.5t-42.5 -9zM508 -126q-66 -12 -139 -12q-72 0 -136 12.5t-112 37.5t-76 62t-28 86t21 82.5t52 56t68 36.5
t68 24t52 19t21 21q0 13 -17 13q-8 0 -18 -4t-15 -10l-7 77q36 23 73 33t71 10q28 0 52.5 -6.5t42.5 -18.5t28.5 -28t10.5 -35q0 -35 -19 -56t-47 -34t-61 -21t-61 -17.5t-47 -23.5t-19 -38q0 -33 35.5 -59t105.5 -26q20 0 42.5 2.5t48.5 8.5z" />
    <glyph glyph-name="Agrave" unicode="&#xc0;" horiz-adv-x="731" 
d="M365 795l-181 96l100 114l142 -149zM343 541l-57 -236h131zM499 -10l-47 183l-193 -7l-30 -159l-229 -12l205 755l258 21l269 -771z" />
    <glyph glyph-name="Aacute" unicode="&#xc1;" horiz-adv-x="731" 
d="M270 831l102 181l148 -48l-166 -168zM343 541l-57 -236h131zM499 -10l-47 183l-193 -7l-30 -159l-229 -12l205 755l258 21l269 -771z" />
    <glyph glyph-name="Acircumflex" unicode="&#xc2;" horiz-adv-x="731" 
d="M397 804l-48 120l-66 -120l-107 28l121 192l103 -4l114 -175zM343 541l-57 -236h131zM499 -10l-47 183l-193 -7l-30 -159l-229 -12l205 755l258 21l269 -771z" />
    <glyph glyph-name="Atilde" unicode="&#xc3;" horiz-adv-x="731" 
d="M171 825q0 16 1.5 44.5t9 56.5t22.5 48t42 20q25 0 38 -10.5t22.5 -22.5t19.5 -22.5t29 -10.5q18 0 22.5 13t4.5 34q0 5 -0.5 10t-0.5 10l122 -14q1 -7 1.5 -15t0.5 -17q0 -23 -3.5 -49t-14 -48.5t-29.5 -37t-49 -14.5q-27 0 -43 9.5t-26.5 21.5t-19.5 21.5t-22 9.5
q-29 0 -29 -50zM343 541l-57 -236h131zM499 -10l-47 183l-193 -7l-30 -159l-229 -12l205 755l258 21l269 -771z" />
    <glyph glyph-name="Adieresis" unicode="&#xc4;" horiz-adv-x="731" 
d="M441 805q-29 0 -49 21t-20 50t20 50t49 21q28 0 48 -21t20 -50t-20 -50t-48 -21zM246 805q-29 0 -49 21t-20 50t20 50t49 21q28 0 48 -21t20 -50t-20 -50t-48 -21zM343 541l-57 -236h131zM499 -10l-47 183l-193 -7l-30 -159l-229 -12l205 755l258 21l269 -771z" />
    <glyph glyph-name="Aring" unicode="&#xc5;" horiz-adv-x="731" 
d="M476 924q0 -26 -10.5 -48.5t-28.5 -39.5t-42.5 -27t-51.5 -10t-51.5 10t-42.5 27t-28.5 39.5t-10.5 48.5t10.5 49t28.5 40t42.5 27t51.5 10t51.5 -10t42.5 -27t28.5 -40t10.5 -49zM348 884q14 0 24 10.5t10 26.5q0 15 -10 26t-24 11t-24 -11t-10 -26q0 -16 10 -26.5
t24 -10.5zM343 541l-57 -236h131zM499 -10l-47 183l-193 -7l-30 -159l-229 -12l205 755l258 21l269 -771z" />
    <glyph glyph-name="AE" unicode="&#xc6;" horiz-adv-x="985" 
d="M486 2l-15 187l-190 -7l-84 -213l-197 64l350 721l550 36l13 -173l-275 -32l10 -102l215 16l16 -159l-208 -18l18 -108l264 27l14 -246zM442 567l-108 -246h127z" />
    <glyph glyph-name="Ccedilla" unicode="&#xc7;" horiz-adv-x="595" 
d="M244 -167q8 -3 21 -5.5t31 -2.5q17 0 28.5 7t11.5 25q0 15 -9.5 24.5t-24.5 15.5t-33.5 10t-36.5 7l27 92q-58 19 -105 52.5t-80 78.5t-50.5 99t-17.5 113q0 69 24.5 138t74 124t124.5 89.5t175 34.5q35 0 72.5 -7t78.5 -23l-62 -179q-18 9 -37 13t-37 4
q-47 0 -81.5 -13.5t-57 -35t-33.5 -49.5t-11 -58q0 -43 12.5 -74.5t34.5 -51.5t50.5 -30t60.5 -10q29 0 58.5 7.5t57.5 21.5l72 -230q-50 -17 -97 -25.5t-91 -8.5h-17.5t-16.5 1l-11 -36q12 -2 36.5 -7.5t49 -18t42.5 -34t18 -55.5q0 -62 -38.5 -95.5t-98.5 -33.5
q-39 0 -77 10.5t-60 18.5z" />
    <glyph glyph-name="Egrave" unicode="&#xc8;" horiz-adv-x="583" 
d="M301 797l-181 96l100 114l142 -149zM84 2l-57 732l471 56l13 -173l-275 -32l10 -102l215 16l16 -159l-211 -18l15 -108l270 27l14 -246z" />
    <glyph glyph-name="Eacute" unicode="&#xc9;" horiz-adv-x="583" 
d="M166 831l102 181l148 -48l-166 -168zM84 2l-57 732l471 56l13 -173l-275 -32l10 -102l215 16l16 -159l-211 -18l15 -108l270 27l14 -246z" />
    <glyph glyph-name="Ecircumflex" unicode="&#xca;" horiz-adv-x="583" 
d="M84 2l-57 732l471 56l13 -173l-275 -32l10 -102l215 16l16 -159l-211 -18l15 -108l270 27l14 -246zM326 806l-58 115l-56 -125l-109 20l105 201l103 4l128 -165z" />
    <glyph glyph-name="Edieresis" unicode="&#xcb;" horiz-adv-x="583" 
d="M84 2l-57 732l471 56l13 -173l-275 -32l10 -102l215 16l16 -159l-211 -18l15 -108l270 27l14 -246zM366 807q-29 0 -49 21t-20 50t20 50t49 21q28 0 48 -21t20 -50t-20 -50t-48 -21zM171 791q-29 0 -49 21t-20 50t20 50t49 21q28 0 48 -21t20 -50t-20 -50t-48 -21z" />
    <glyph glyph-name="Igrave" unicode="&#xcc;" horiz-adv-x="498" 
d="M309 795l-181 96l100 114l142 -149zM35 15l14 182l84 -5l15 371h-80l-6 175l428 18l-4 -193h-99l-27 -388l72 -4l-13 -195z" />
    <glyph glyph-name="Iacute" unicode="&#xcd;" horiz-adv-x="498" 
d="M204 832l102 181l148 -48l-166 -168zM35 15l14 182l84 -5l15 371h-80l-6 175l428 18l-4 -193h-99l-27 -388l72 -4l-13 -195z" />
    <glyph glyph-name="Icircumflex" unicode="&#xce;" horiz-adv-x="498" 
d="M342 801l-48 120l-66 -120l-107 28l121 192l103 -4l114 -175zM35 15l14 182l84 -5l15 371h-80l-6 175l428 18l-4 -193h-99l-27 -388l72 -4l-13 -195z" />
    <glyph glyph-name="Idieresis" unicode="&#xcf;" horiz-adv-x="498" 
d="M378 796q-29 0 -49 21t-20 50t20 50t49 21q28 0 48 -21t20 -50t-20 -50t-48 -21zM183 796q-29 0 -49 21t-20 50t20 50t49 21q28 0 48 -21t20 -50t-20 -50t-48 -21zM35 15l14 182l84 -5l15 371h-80l-6 175l428 18l-4 -193h-99l-27 -388l72 -4l-13 -195z" />
    <glyph glyph-name="Eth" unicode="&#xd0;" horiz-adv-x="725" 
d="M49 257l-40 -4l-14 159l56 4l3 299q32 2 63 3.5t63 1.5q113 0 209 -22t165.5 -66.5t109 -110.5t39.5 -153q0 -58 -22 -110t-61.5 -96t-93 -79t-117 -59.5t-134.5 -37.5t-144 -13q-21 0 -42 1.5t-42 3.5zM241 276l-3 -74q56 0 98.5 15t70.5 39t42 54.5t14 62.5
q0 29 -12 57t-36.5 49.5t-60.5 34.5t-84 13q-4 0 -8 -0.5t-9 -0.5l-5 -97l92 7l16 -149z" />
    <glyph glyph-name="Ntilde" unicode="&#xd1;" horiz-adv-x="737" 
d="M186 815q0 16 1.5 44.5t9 56.5t22.5 48t42 20q25 0 38 -10.5t22.5 -22.5t19.5 -22.5t29 -10.5q18 0 22.5 13t4.5 34q0 5 -0.5 10t-0.5 10l122 -14q1 -7 1.5 -15t0.5 -17q0 -23 -3.5 -49t-14 -48.5t-29.5 -37t-49 -14.5q-27 0 -43 9.5t-26.5 21.5t-19.5 21.5t-22 9.5
q-29 0 -29 -50zM529 -31l-273 424l18 -404l-214 22l-18 677l233 44l198 -377l-15 381l251 14l-67 -758z" />
    <glyph glyph-name="Ograve" unicode="&#xd2;" 
d="M432 801l-181 96l100 114l142 -149zM409 180q33 0 60 13t46 37t29.5 57t10.5 73q0 29 -9.5 58t-28 52t-46 37t-63.5 14t-65.5 -12.5t-50.5 -36t-32.5 -55.5t-11.5 -71q0 -32 9.5 -61.5t29.5 -53t50.5 -37.5t71.5 -14zM787 369q0 -87 -32.5 -157t-86.5 -118.5t-125.5 -75
t-149.5 -26.5q-75 0 -142 28t-117 77.5t-79.5 117t-29.5 147.5q0 82 26 154.5t74.5 127t119.5 86t161 31.5q92 0 163 -32.5t119.5 -87t73.5 -125.5t25 -147z" />
    <glyph glyph-name="Oacute" unicode="&#xd3;" 
d="M334 835l102 181l148 -48l-166 -168zM409 180q33 0 60 13t46 37t29.5 57t10.5 73q0 29 -9.5 58t-28 52t-46 37t-63.5 14t-65.5 -12.5t-50.5 -36t-32.5 -55.5t-11.5 -71q0 -32 9.5 -61.5t29.5 -53t50.5 -37.5t71.5 -14zM787 369q0 -87 -32.5 -157t-86.5 -118.5t-125.5 -75
t-149.5 -26.5q-75 0 -142 28t-117 77.5t-79.5 117t-29.5 147.5q0 82 26 154.5t74.5 127t119.5 86t161 31.5q92 0 163 -32.5t119.5 -87t73.5 -125.5t25 -147z" />
    <glyph glyph-name="Ocircumflex" unicode="&#xd4;" 
d="M457 799l-48 120l-66 -120l-107 28l121 192l103 -4l114 -175zM409 180q33 0 60 13t46 37t29.5 57t10.5 73q0 29 -9.5 58t-28 52t-46 37t-63.5 14t-65.5 -12.5t-50.5 -36t-32.5 -55.5t-11.5 -71q0 -32 9.5 -61.5t29.5 -53t50.5 -37.5t71.5 -14zM787 369q0 -87 -32.5 -157
t-86.5 -118.5t-125.5 -75t-149.5 -26.5q-75 0 -142 28t-117 77.5t-79.5 117t-29.5 147.5q0 82 26 154.5t74.5 127t119.5 86t161 31.5q92 0 163 -32.5t119.5 -87t73.5 -125.5t25 -147z" />
    <glyph glyph-name="Otilde" unicode="&#xd5;" 
d="M239 825q0 16 1.5 44.5t9 56.5t22.5 48t42 20q25 0 38 -10.5t22.5 -22.5t19.5 -22.5t29 -10.5q18 0 22.5 13t4.5 34q0 5 -0.5 10t-0.5 10l122 -14q1 -7 1.5 -15t0.5 -17q0 -23 -3.5 -49t-14 -48.5t-29.5 -37t-49 -14.5q-27 0 -43 9.5t-26.5 21.5t-19.5 21.5t-22 9.5
q-29 0 -29 -50zM409 180q33 0 60 13t46 37t29.5 57t10.5 73q0 29 -9.5 58t-28 52t-46 37t-63.5 14t-65.5 -12.5t-50.5 -36t-32.5 -55.5t-11.5 -71q0 -32 9.5 -61.5t29.5 -53t50.5 -37.5t71.5 -14zM787 369q0 -87 -32.5 -157t-86.5 -118.5t-125.5 -75t-149.5 -26.5
q-75 0 -142 28t-117 77.5t-79.5 117t-29.5 147.5q0 82 26 154.5t74.5 127t119.5 86t161 31.5q92 0 163 -32.5t119.5 -87t73.5 -125.5t25 -147z" />
    <glyph glyph-name="Odieresis" unicode="&#xd6;" 
d="M504 801q-29 0 -49 21t-20 50t20 50t49 21q28 0 48 -21t20 -50t-20 -50t-48 -21zM309 801q-29 0 -49 21t-20 50t20 50t49 21q28 0 48 -21t20 -50t-20 -50t-48 -21zM409 180q33 0 60 13t46 37t29.5 57t10.5 73q0 29 -9.5 58t-28 52t-46 37t-63.5 14t-65.5 -12.5t-50.5 -36
t-32.5 -55.5t-11.5 -71q0 -32 9.5 -61.5t29.5 -53t50.5 -37.5t71.5 -14zM787 369q0 -87 -32.5 -157t-86.5 -118.5t-125.5 -75t-149.5 -26.5q-75 0 -142 28t-117 77.5t-79.5 117t-29.5 147.5q0 82 26 154.5t74.5 127t119.5 86t161 31.5q92 0 163 -32.5t119.5 -87t73.5 -125.5
t25 -147z" />
    <glyph glyph-name="multiply" unicode="&#xd7;" horiz-adv-x="427" 
d="M320 137l-101 93l-107 -111l-81 93l95 103l-110 102l91 97l107 -104l97 106l97 -91l-101 -105l106 -102z" />
    <glyph glyph-name="Oslash" unicode="&#xd8;" 
d="M141 -37l43 93q-72 49 -115.5 128t-43.5 178q0 82 26 154.5t74.5 127t119.5 86t161 31.5q54 0 101 -12l46 98l142 -92l-43 -80q66 -56 100.5 -136.5t34.5 -169.5q0 -87 -32.5 -157t-86.5 -118.5t-125.5 -75t-149.5 -26.5q-26 0 -50.5 3.5t-47.5 9.5l-59 -112zM389 181
q5 -1 10 -1h10q33 0 60 13t46 37t29.5 57t10.5 73q0 23 -6 46t-17 43zM401 521q-70 -3 -111.5 -51t-41.5 -124q0 -26 6 -51t20 -46z" />
    <glyph glyph-name="Ugrave" unicode="&#xd9;" horiz-adv-x="700" 
d="M400 795l-181 96l100 114l142 -149zM649 758q8 -53 12.5 -111.5t4.5 -120.5q0 -69 -6.5 -137.5t-21 -131.5t-38.5 -117.5t-58.5 -94.5t-80.5 -63t-105 -23q-82 0 -142.5 46.5t-100.5 126t-59.5 184t-19.5 221.5q0 54 5.5 116.5t13.5 110.5l232 -25q-6 -20 -10.5 -45
t-7 -51t-4 -52.5t-1.5 -48.5q0 -69 6.5 -126t20 -97.5t35 -63t50.5 -22.5q33 0 55 21t35.5 59.5t19.5 91.5t6 116t-5.5 118t-13.5 103z" />
    <glyph glyph-name="Uacute" unicode="&#xda;" horiz-adv-x="700" 
d="M311 823l102 181l148 -48l-166 -168zM649 758q8 -53 12.5 -111.5t4.5 -120.5q0 -69 -6.5 -137.5t-21 -131.5t-38.5 -117.5t-58.5 -94.5t-80.5 -63t-105 -23q-82 0 -142.5 46.5t-100.5 126t-59.5 184t-19.5 221.5q0 54 5.5 116.5t13.5 110.5l232 -25q-6 -20 -10.5 -45
t-7 -51t-4 -52.5t-1.5 -48.5q0 -69 6.5 -126t20 -97.5t35 -63t50.5 -22.5q33 0 55 21t35.5 59.5t19.5 91.5t6 116t-5.5 118t-13.5 103z" />
    <glyph glyph-name="Ucircumflex" unicode="&#xdb;" horiz-adv-x="700" 
d="M431 798l-48 120l-66 -120l-107 28l121 192l103 -4l114 -175zM649 758q8 -53 12.5 -111.5t4.5 -120.5q0 -69 -6.5 -137.5t-21 -131.5t-38.5 -117.5t-58.5 -94.5t-80.5 -63t-105 -23q-82 0 -142.5 46.5t-100.5 126t-59.5 184t-19.5 221.5q0 54 5.5 116.5t13.5 110.5
l232 -25q-6 -20 -10.5 -45t-7 -51t-4 -52.5t-1.5 -48.5q0 -69 6.5 -126t20 -97.5t35 -63t50.5 -22.5q33 0 55 21t35.5 59.5t19.5 91.5t6 116t-5.5 118t-13.5 103z" />
    <glyph glyph-name="Udieresis" unicode="&#xdc;" horiz-adv-x="700" 
d="M475 803q-29 0 -49 21t-20 50t20 50t49 21q28 0 48 -21t20 -50t-20 -50t-48 -21zM280 803q-29 0 -49 21t-20 50t20 50t49 21q28 0 48 -21t20 -50t-20 -50t-48 -21zM649 758q8 -53 12.5 -111.5t4.5 -120.5q0 -69 -6.5 -137.5t-21 -131.5t-38.5 -117.5t-58.5 -94.5
t-80.5 -63t-105 -23q-82 0 -142.5 46.5t-100.5 126t-59.5 184t-19.5 221.5q0 54 5.5 116.5t13.5 110.5l232 -25q-6 -20 -10.5 -45t-7 -51t-4 -52.5t-1.5 -48.5q0 -69 6.5 -126t20 -97.5t35 -63t50.5 -22.5q33 0 55 21t35.5 59.5t19.5 91.5t6 116t-5.5 118t-13.5 103z" />
    <glyph glyph-name="Yacute" unicode="&#xdd;" horiz-adv-x="727" 
d="M332 826l102 181l148 -48l-166 -168zM249 -39l-4 362l-279 364l274 93l164 -292l163 290l183 -69l-258 -393l3 -334z" />
    <glyph glyph-name="Thorn" unicode="&#xde;" horiz-adv-x="663" 
d="M40 -34l6 780l219 3l1 -100h33q90 0 156 -21.5t109 -57.5t63.5 -82t20.5 -95q0 -66 -24 -120.5t-70 -93.5t-112.5 -60.5t-151.5 -21.5q-7 0 -13 0.5t-13 0.5l7 -123zM267 284q7 -1 13.5 -1h12.5q82 0 126.5 25.5t44.5 65.5q0 32 -30 56t-94 24q-20 0 -40.5 -3t-37.5 -9z
" />
    <glyph glyph-name="germandbls" unicode="&#xdf;" horiz-adv-x="1289" 
d="M93 211q40 -35 81 -50t78 -15q28 0 53 6.5t43.5 18.5t29 28.5t10.5 37.5q0 24 -28 35.5t-70.5 20t-91.5 19t-91.5 33t-70.5 62t-28 105.5q0 68 37 116t93.5 78.5t122.5 44.5t125 14q48 0 97.5 -8.5t97.5 -28.5l-69 -177q-35 20 -71.5 29t-70.5 9q-29 0 -54 -5.5
t-43.5 -16t-29.5 -25t-11 -32.5q0 -19 17 -29.5t45 -17t64 -12t73 -14.5t73 -24t64 -40t45 -63.5t17 -94.5q0 -54 -28.5 -99.5t-76.5 -77.5t-110 -50t-128 -18q-80 0 -158 28.5t-138 91.5zM737 211q40 -35 81 -50t78 -15q28 0 53 6.5t43.5 18.5t29 28.5t10.5 37.5
q0 24 -28 35.5t-70.5 20t-91.5 19t-91.5 33t-70.5 62t-28 105.5q0 68 37 116t93.5 78.5t122.5 44.5t125 14q48 0 97.5 -8.5t97.5 -28.5l-69 -177q-35 20 -71.5 29t-70.5 9q-29 0 -54 -5.5t-43.5 -16t-29.5 -25t-11 -32.5q0 -19 17 -29.5t45 -17t64 -12t73 -14.5t73 -24
t64 -40t45 -63.5t17 -94.5q0 -54 -28.5 -99.5t-76.5 -77.5t-110 -50t-128 -18q-80 0 -158 28.5t-138 91.5z" />
    <glyph glyph-name="agrave" unicode="&#xe0;" horiz-adv-x="719" 
d="M379 811l-181 96l100 114l142 -149zM343 498l-57 -243l128 8zM502 -31l-46 153l-198 -14l-33 -151l-226 43l239 766l213 -7l270 -727z" />
    <glyph glyph-name="aacute" unicode="&#xe1;" horiz-adv-x="719" 
d="M293 834l102 181l148 -48l-166 -168zM343 498l-57 -243l128 8zM502 -31l-46 153l-198 -14l-33 -151l-226 43l239 766l213 -7l270 -727z" />
    <glyph glyph-name="acircumflex" unicode="&#xe2;" horiz-adv-x="719" 
d="M413 804l-48 120l-66 -120l-107 28l121 192l103 -4l114 -175zM343 498l-57 -243l128 8zM502 -31l-46 153l-198 -14l-33 -151l-226 43l239 766l213 -7l270 -727z" />
    <glyph glyph-name="atilde" unicode="&#xe3;" horiz-adv-x="719" 
d="M192 825q0 16 1.5 44.5t9 56.5t22.5 48t42 20q25 0 38 -10.5t22.5 -22.5t19.5 -22.5t29 -10.5q18 0 22.5 13t4.5 34q0 5 -0.5 10t-0.5 10l122 -14q1 -7 1.5 -15t0.5 -17q0 -23 -3.5 -49t-14 -48.5t-29.5 -37t-49 -14.5q-27 0 -43 9.5t-26.5 21.5t-19.5 21.5t-22 9.5
q-29 0 -29 -50zM343 498l-57 -243l128 8zM502 -31l-46 153l-198 -14l-33 -151l-226 43l239 766l213 -7l270 -727z" />
    <glyph glyph-name="adieresis" unicode="&#xe4;" horiz-adv-x="719" 
d="M447 805q-29 0 -49 21t-20 50t20 50t49 21q28 0 48 -21t20 -50t-20 -50t-48 -21zM252 805q-29 0 -49 21t-20 50t20 50t49 21q28 0 48 -21t20 -50t-20 -50t-48 -21zM343 498l-57 -243l128 8zM502 -31l-46 153l-198 -14l-33 -151l-226 43l239 766l213 -7l270 -727z" />
    <glyph glyph-name="aring" unicode="&#xe5;" horiz-adv-x="719" 
d="M484 916q0 -26 -10.5 -48.5t-28.5 -39.5t-42.5 -27t-51.5 -10t-51.5 10t-42.5 27t-28.5 39.5t-10.5 48.5t10.5 49t28.5 40t42.5 27t51.5 10t51.5 -10t42.5 -27t28.5 -40t10.5 -49zM356 876q14 0 24 10.5t10 26.5q0 15 -10 26t-24 11t-24 -11t-10 -26q0 -16 10 -26.5
t24 -10.5zM343 498l-57 -243l128 8zM502 -31l-46 153l-198 -14l-33 -151l-226 43l239 766l213 -7l270 -727z" />
    <glyph glyph-name="ae" unicode="&#xe6;" horiz-adv-x="973" 
d="M502 -38l-46 153l-198 -14l-33 -151l-226 43l239 766l213 -7l12 -32l483 47l4 -242l-404 -31l33 -87l320 28l9 -140l-278 -26l37 -99l284 34l14 -169zM343 491l-57 -243l128 8z" />
    <glyph glyph-name="ccedilla" unicode="&#xe7;" horiz-adv-x="517" 
d="M207 -169q8 -3 21 -5.5t31 -2.5q17 0 28.5 7t11.5 25q0 15 -9.5 24.5t-24.5 15.5t-33.5 10t-36.5 7l27 94q-50 23 -87 57.5t-61 77.5t-36 91.5t-12 98.5q0 76 26 151.5t76.5 134.5t123 96t165.5 37q27 0 54 -3l20 -255q-55 0 -97 -12.5t-70.5 -33.5t-43 -48.5
t-14.5 -58.5q0 -26 12.5 -44t32 -29t44.5 -16.5t51 -5.5q49 0 86 16l-1 -285q-22 -3 -42.5 -4t-40.5 -1q-23 0 -45 2t-42 5l-9 -28q12 -2 36.5 -7.5t49 -18t42.5 -34t18 -55.5q0 -62 -38.5 -95.5t-98.5 -33.5q-39 0 -77 10.5t-60 18.5z" />
    <glyph glyph-name="egrave" unicode="&#xe8;" horiz-adv-x="537" 
d="M304 800l-181 96l100 114l142 -149zM62 -39l-39 758l483 47l4 -242l-302 -23l4 -89l247 22l9 -140l-246 -26l4 -100l285 35l14 -169z" />
    <glyph glyph-name="eacute" unicode="&#xe9;" horiz-adv-x="537" 
d="M186 835l102 181l148 -48l-166 -168zM62 -39l-39 758l483 47l4 -242l-302 -23l4 -89l247 22l9 -140l-246 -26l4 -100l285 35l14 -169z" />
    <glyph glyph-name="ecircumflex" unicode="&#xea;" horiz-adv-x="537" 
d="M62 -39l-39 758l483 47l4 -242l-302 -23l4 -89l247 22l9 -140l-246 -26l4 -100l285 35l14 -169zM316 806l-58 115l-56 -125l-109 20l105 201l103 4l128 -165z" />
    <glyph glyph-name="edieresis" unicode="&#xeb;" horiz-adv-x="537" 
d="M356 799q-29 0 -49 21t-20 50t20 50t49 21q28 0 48 -21t20 -50t-20 -50t-48 -21zM161 783q-29 0 -49 21t-20 50t20 50t49 21q28 0 48 -21t20 -50t-20 -50t-48 -21zM62 -39l-39 758l483 47l4 -242l-302 -23l4 -89l247 22l9 -140l-246 -26l4 -100l285 35l14 -169z" />
    <glyph glyph-name="igrave" unicode="&#xec;" horiz-adv-x="324" 
d="M201 795l-181 96l100 114l142 -149zM40 -34l16 780l233 4l-18 -775z" />
    <glyph glyph-name="iacute" unicode="&#xed;" horiz-adv-x="324" 
d="M97 831l102 181l148 -48l-166 -168zM40 -34l16 780l233 4l-18 -775z" />
    <glyph glyph-name="icircumflex" unicode="&#xee;" horiz-adv-x="324" 
d="M223 804l-48 120l-66 -120l-107 28l121 192l103 -4l114 -175zM40 -34l16 780l233 4l-18 -775z" />
    <glyph glyph-name="idieresis" unicode="&#xef;" horiz-adv-x="324" 
d="M271 805q-29 0 -49 21t-20 50t20 50t49 21q28 0 48 -21t20 -50t-20 -50t-48 -21zM76 805q-29 0 -49 21t-20 50t20 50t49 21q28 0 48 -21t20 -50t-20 -50t-48 -21zM40 -34l16 780l233 4l-18 -775z" />
    <glyph glyph-name="eth" unicode="&#xf0;" horiz-adv-x="731" 
d="M58 287l-51 -1l-16 121l61 4l-15 308q39 8 81 12t86 4q128 0 226.5 -28.5t165 -79.5t101 -121t34.5 -152q0 -70 -34 -136.5t-104 -118.5t-176.5 -84t-251.5 -32q-47 0 -92 6zM278 292l-1 -71q9 -1 18 -1.5t17 -0.5q94 0 151 35.5t57 106.5q0 70 -63.5 111t-173.5 43
l-2 -86l103 8l19 -142z" />
    <glyph glyph-name="ntilde" unicode="&#xf1;" horiz-adv-x="676" 
d="M146 826q0 16 1.5 44.5t9 56.5t22.5 48t42 20q25 0 38 -10.5t22.5 -22.5t19.5 -22.5t29 -10.5q18 0 22.5 13t4.5 34q0 5 -0.5 10t-0.5 10l122 -14q1 -7 1.5 -15t0.5 -17q0 -23 -3.5 -49t-14 -48.5t-29.5 -37t-49 -14.5q-27 0 -43 9.5t-26.5 21.5t-19.5 21.5t-22 9.5
q-29 0 -29 -50zM524 -25l-263 408l59 -400l-273 -31l-16 799l169 -6l219 -299l-45 327l246 -28l28 -758z" />
    <glyph glyph-name="ograve" unicode="&#xf2;" horiz-adv-x="780" 
d="M401 807l-181 96l100 114l142 -149zM391 180q34 0 60 14t44 38t27.5 55t9.5 66t-10 66t-28 54.5t-43.5 37.5t-56.5 14q-34 0 -62 -14.5t-48.5 -38.5t-31.5 -55.5t-11 -66.5q0 -36 9 -67t27.5 -54t46.5 -36t67 -13zM386 -29q-77 0 -143 31.5t-114.5 85.5t-76 125.5
t-27.5 151.5q0 81 28 154t76.5 128.5t115 88t144.5 32.5q79 0 146 -31.5t116 -85.5t76.5 -127t27.5 -156q0 -79 -28.5 -151t-78 -126.5t-117 -87t-145.5 -32.5z" />
    <glyph glyph-name="oacute" unicode="&#xf3;" horiz-adv-x="780" 
d="M307 835l102 181l148 -48l-166 -168zM391 180q34 0 60 14t44 38t27.5 55t9.5 66t-10 66t-28 54.5t-43.5 37.5t-56.5 14q-34 0 -62 -14.5t-48.5 -38.5t-31.5 -55.5t-11 -66.5q0 -36 9 -67t27.5 -54t46.5 -36t67 -13zM386 -29q-77 0 -143 31.5t-114.5 85.5t-76 125.5
t-27.5 151.5q0 81 28 154t76.5 128.5t115 88t144.5 32.5q79 0 146 -31.5t116 -85.5t76.5 -127t27.5 -156q0 -79 -28.5 -151t-78 -126.5t-117 -87t-145.5 -32.5z" />
    <glyph glyph-name="ocircumflex" unicode="&#xf4;" horiz-adv-x="780" 
d="M442 804l-48 120l-66 -120l-107 28l121 192l103 -4l114 -175zM391 180q34 0 60 14t44 38t27.5 55t9.5 66t-10 66t-28 54.5t-43.5 37.5t-56.5 14q-34 0 -62 -14.5t-48.5 -38.5t-31.5 -55.5t-11 -66.5q0 -36 9 -67t27.5 -54t46.5 -36t67 -13zM386 -29q-77 0 -143 31.5
t-114.5 85.5t-76 125.5t-27.5 151.5q0 81 28 154t76.5 128.5t115 88t144.5 32.5q79 0 146 -31.5t116 -85.5t76.5 -127t27.5 -156q0 -79 -28.5 -151t-78 -126.5t-117 -87t-145.5 -32.5z" />
    <glyph glyph-name="otilde" unicode="&#xf5;" horiz-adv-x="780" 
d="M223 825q0 16 1.5 44.5t9 56.5t22.5 48t42 20q25 0 38 -10.5t22.5 -22.5t19.5 -22.5t29 -10.5q18 0 22.5 13t4.5 34q0 5 -0.5 10t-0.5 10l122 -14q1 -7 1.5 -15t0.5 -17q0 -23 -3.5 -49t-14 -48.5t-29.5 -37t-49 -14.5q-27 0 -43 9.5t-26.5 21.5t-19.5 21.5t-22 9.5
q-29 0 -29 -50zM391 180q34 0 60 14t44 38t27.5 55t9.5 66t-10 66t-28 54.5t-43.5 37.5t-56.5 14q-34 0 -62 -14.5t-48.5 -38.5t-31.5 -55.5t-11 -66.5q0 -36 9 -67t27.5 -54t46.5 -36t67 -13zM386 -29q-77 0 -143 31.5t-114.5 85.5t-76 125.5t-27.5 151.5q0 81 28 154
t76.5 128.5t115 88t144.5 32.5q79 0 146 -31.5t116 -85.5t76.5 -127t27.5 -156q0 -79 -28.5 -151t-78 -126.5t-117 -87t-145.5 -32.5z" />
    <glyph glyph-name="odieresis" unicode="&#xf6;" horiz-adv-x="780" 
d="M488 805q-29 0 -49 21t-20 50t20 50t49 21q28 0 48 -21t20 -50t-20 -50t-48 -21zM293 805q-29 0 -49 21t-20 50t20 50t49 21q28 0 48 -21t20 -50t-20 -50t-48 -21zM391 180q34 0 60 14t44 38t27.5 55t9.5 66t-10 66t-28 54.5t-43.5 37.5t-56.5 14q-34 0 -62 -14.5
t-48.5 -38.5t-31.5 -55.5t-11 -66.5q0 -36 9 -67t27.5 -54t46.5 -36t67 -13zM386 -29q-77 0 -143 31.5t-114.5 85.5t-76 125.5t-27.5 151.5q0 81 28 154t76.5 128.5t115 88t144.5 32.5q79 0 146 -31.5t116 -85.5t76.5 -127t27.5 -156q0 -79 -28.5 -151t-78 -126.5t-117 -87
t-145.5 -32.5z" />
    <glyph glyph-name="divide" unicode="&#xf7;" horiz-adv-x="463" 
d="M23 249l-4 133l426 7l-9 -123zM234 409q-21 0 -40.5 8t-35 23t-24.5 35t-9 44q0 22 8.5 42.5t23 36t34 24.5t42.5 9q21 0 40.5 -8.5t35 -23t24.5 -35t9 -44.5q0 -21 -8 -41t-22 -35.5t-34 -25t-44 -9.5zM234 9q-21 0 -40.5 8t-35 23t-24.5 35t-9 44q0 22 8.5 42.5t23 36
t34 24.5t42.5 9q21 0 40.5 -8.5t35 -23t24.5 -35t9 -44.5q0 -21 -8 -41t-22 -35.5t-34 -25t-44 -9.5z" />
    <glyph glyph-name="oslash" unicode="&#xf8;" horiz-adv-x="780" 
d="M128 -44l43 92q-68 54 -107 137t-39 180q0 81 28 154t76.5 128.5t115 88t144.5 32.5q56 0 109 -17l42 89l142 -92l-45 -83q56 -55 87 -131.5t31 -165.5q0 -79 -28.5 -151t-78 -126.5t-117 -87t-145.5 -32.5q-29 0 -56 5t-53 13l-54 -103zM393 525q-33 0 -61 -14.5
t-48.5 -38.5t-31.5 -55.5t-11 -66.5q0 -29 5.5 -55t17.5 -47zM391 180q34 0 60 14t44 38t27.5 55t9.5 66q0 43 -16 83l-137 -256h12z" />
    <glyph glyph-name="ugrave" unicode="&#xf9;" horiz-adv-x="704" 
d="M397 780l-181 96l100 114l142 -149zM672 741q5 -42 7.5 -86t2.5 -92q0 -125 -16.5 -234t-53.5 -191t-97 -129t-147 -47q-79 0 -142 53t-107 141.5t-67.5 204.5t-23.5 241q0 35 2 69.5t6 69.5l263 -22q-4 -25 -6.5 -67t-2.5 -88q0 -77 5.5 -139t18 -106.5t32 -68.5
t47.5 -24q29 0 49.5 19t33 54t18.5 85t6 112t-6.5 125.5t-17.5 121.5z" />
    <glyph glyph-name="uacute" unicode="&#xfa;" horiz-adv-x="704" 
d="M302 817l102 181l148 -48l-166 -168zM672 741q5 -42 7.5 -86t2.5 -92q0 -125 -16.5 -234t-53.5 -191t-97 -129t-147 -47q-79 0 -142 53t-107 141.5t-67.5 204.5t-23.5 241q0 35 2 69.5t6 69.5l263 -22q-4 -25 -6.5 -67t-2.5 -88q0 -77 5.5 -139t18 -106.5t32 -68.5
t47.5 -24q29 0 49.5 19t33 54t18.5 85t6 112t-6.5 125.5t-17.5 121.5z" />
    <glyph glyph-name="ucircumflex" unicode="&#xfb;" horiz-adv-x="704" 
d="M430 794l-48 120l-66 -120l-107 28l121 192l103 -4l114 -175zM672 741q5 -42 7.5 -86t2.5 -92q0 -125 -16.5 -234t-53.5 -191t-97 -129t-147 -47q-79 0 -142 53t-107 141.5t-67.5 204.5t-23.5 241q0 35 2 69.5t6 69.5l263 -22q-4 -25 -6.5 -67t-2.5 -88q0 -77 5.5 -139
t18 -106.5t32 -68.5t47.5 -24q29 0 49.5 19t33 54t18.5 85t6 112t-6.5 125.5t-17.5 121.5z" />
    <glyph glyph-name="udieresis" unicode="&#xfc;" horiz-adv-x="704" 
d="M475 798q-29 0 -49 21t-20 50t20 50t49 21q28 0 48 -21t20 -50t-20 -50t-48 -21zM280 798q-29 0 -49 21t-20 50t20 50t49 21q28 0 48 -21t20 -50t-20 -50t-48 -21zM672 741q5 -42 7.5 -86t2.5 -92q0 -125 -16.5 -234t-53.5 -191t-97 -129t-147 -47q-79 0 -142 53
t-107 141.5t-67.5 204.5t-23.5 241q0 35 2 69.5t6 69.5l263 -22q-4 -25 -6.5 -67t-2.5 -88q0 -77 5.5 -139t18 -106.5t32 -68.5t47.5 -24q29 0 49.5 19t33 54t18.5 85t6 112t-6.5 125.5t-17.5 121.5z" />
    <glyph glyph-name="yacute" unicode="&#xfd;" horiz-adv-x="701" 
d="M278 824l102 181l148 -48l-166 -168zM234 -14l10 302l-264 342l204 139l193 -288l144 282l198 -73l-228 -401l4 -308z" />
    <glyph glyph-name="thorn" unicode="&#xfe;" horiz-adv-x="663" 
d="M40 -24l6 780l208 3l1 -110h44q90 0 156 -21.5t109 -57.5t63.5 -82t20.5 -95q0 -54 -24 -107t-70 -95t-112.5 -68t-151.5 -26q-7 0 -13 0.5t-13 0.5l7 -113zM267 263q7 -1 13.5 -1h12.5q41 0 73 10t53.5 26t33 36t11.5 40q0 32 -30 56t-94 24q-20 0 -40.5 -3t-37.5 -9z
" />
    <glyph glyph-name="ydieresis" unicode="&#xff;" horiz-adv-x="701" 
d="M447 798q-29 0 -49 21t-20 50t20 50t49 21q28 0 48 -21t20 -50t-20 -50t-48 -21zM252 798q-29 0 -49 21t-20 50t20 50t49 21q28 0 48 -21t20 -50t-20 -50t-48 -21zM234 -14l10 302l-264 342l204 139l193 -288l144 282l198 -73l-228 -401l4 -308z" />
    <glyph glyph-name="OE" unicode="&#x152;" horiz-adv-x="1068" 
d="M598 0l-4 49q-48 -28 -102.5 -42.5t-112.5 -14.5q-75 0 -142 28t-117 77.5t-79.5 117t-29.5 147.5q0 82 26 154.5t74.5 127t119.5 86t161 31.5q84 0 153 -29l438 56l13 -173l-275 -32l10 -102l215 16l16 -159l-211 -18l15 -108l270 27l14 -246zM395 180q33 0 60 13t46 37
t29.5 57t10.5 73q0 29 -9.5 58t-28 52t-46 37t-63.5 14t-65.5 -12.5t-50.5 -36t-32.5 -55.5t-11.5 -71q0 -32 9.5 -61.5t29.5 -53t50.5 -37.5t71.5 -14z" />
    <glyph glyph-name="oe" unicode="&#x153;" horiz-adv-x="1030" 
d="M531 13q-37 -20 -78 -31t-86 -11q-77 0 -143 31.5t-114.5 85.5t-76 125.5t-27.5 151.5q0 81 28 154t76.5 128.5t115 88t144.5 32.5q38 0 73.5 -8t68.5 -22l433 52l13 -173l-275 -32l10 -102l215 16l16 -159l-211 -18l15 -108l270 27l14 -246zM372 178q33 0 59 14.5
t44 38.5t27.5 55.5t9.5 66.5t-9.5 66.5t-27.5 55.5t-43.5 38t-57.5 14q-33 0 -60.5 -14.5t-48 -39t-31.5 -56.5t-11 -67q0 -36 9 -67.5t27.5 -54.5t46.5 -36.5t66 -13.5z" />
    <glyph glyph-name="Scaron" unicode="&#x160;" horiz-adv-x="711" 
d="M99 251q54 -38 108.5 -55t102.5 -17q58 0 95 23t37 65q0 31 -30.5 47t-76.5 25.5t-99.5 19.5t-99.5 29.5t-76.5 54t-30.5 95.5q0 70 31 115t80.5 71.5t112 37t126.5 10.5q51 0 98 -5t86 -12q0 -17 -1 -41.5t-1.5 -50.5t-1.5 -50t-2 -41q-13 6 -33 11.5t-44 10.5t-50 8
t-51 3q-45 0 -78 -13t-33 -46q0 -19 18.5 -28t48.5 -13.5t68.5 -7.5t78.5 -10t78.5 -20.5t68.5 -40t48.5 -68.5t18.5 -105q0 -71 -31 -123t-82 -85.5t-116.5 -49.5t-134.5 -16q-51 0 -100.5 8.5t-94.5 24.5t-82.5 39.5t-63.5 54.5zM264 803l-126 167l113 49l57 -116l57 124
l109 -20l-107 -200z" />
    <glyph glyph-name="scaron" unicode="&#x161;" horiz-adv-x="700" 
d="M128 211q40 -35 81 -50t78 -15q28 0 53 6.5t43.5 18.5t29 28.5t10.5 37.5q0 24 -28 35.5t-70.5 20t-91.5 19t-91.5 33t-70.5 62t-28 105.5q0 68 37 116t93.5 78.5t122.5 44.5t125 14q48 0 97.5 -8.5t97.5 -28.5l-69 -177q-35 20 -71.5 29t-70.5 9q-29 0 -54 -5.5
t-43.5 -16t-29.5 -25t-11 -32.5q0 -19 17 -29.5t45 -17t64 -12t73 -14.5t73 -24t64 -40t45 -63.5t17 -94.5q0 -54 -28.5 -99.5t-76.5 -77.5t-110 -50t-128 -18q-80 0 -158 28.5t-138 91.5zM289 802l-133 161l112 54l61 -114l53 126l109 -16l-99 -204z" />
    <glyph glyph-name="Ydieresis" unicode="&#x178;" horiz-adv-x="727" 
d="M504 798q-29 0 -49 21t-20 50t20 50t49 21q28 0 48 -21t20 -50t-20 -50t-48 -21zM309 798q-29 0 -49 21t-20 50t20 50t49 21q28 0 48 -21t20 -50t-20 -50t-48 -21zM249 -39l-4 362l-279 364l274 93l164 -292l163 290l183 -69l-258 -393l3 -334z" />
    <glyph glyph-name="Zcaron" unicode="&#x17d;" horiz-adv-x="773" 
d="M354 812l-114 175l117 41l48 -120l66 120l107 -28l-121 -192zM18 22l352 538l-305 -16l3 191l685 31l-323 -561l297 11l-4 -257z" />
    <glyph glyph-name="zcaron" unicode="&#x17e;" horiz-adv-x="705" 
d="M37 -5v146l340 403l-306 -20l4 216l523 16l72 -152l-316 -425l305 23l11 -207h-633zM297 804l-114 175l117 41l48 -120l66 120l107 -28l-121 -192z" />
    <glyph glyph-name="florin" unicode="&#x192;" horiz-adv-x="1044" 
d="M661 112q12 -11 28 -21t33.5 -17t35.5 -11t34 -4q22 0 36.5 9t14.5 30q0 20 -30.5 38t-84.5 29l-1 71q21 0 41.5 3t37 10t27 17t10.5 25q0 17 -17 23.5t-41 6.5q-20 0 -41.5 -3.5t-41.5 -8t-35.5 -9.5t-21.5 -9l-2 167q23 3 45.5 4t45.5 1q63 0 117 -10.5t93 -29.5
t61 -45.5t22 -59.5q0 -46 -38.5 -75t-98.5 -45q45 -23 72.5 -58.5t27.5 -73.5q0 -33 -19.5 -56t-49 -37.5t-64.5 -21t-66 -6.5q-51 0 -91 8t-85 29zM126 280l-29 278l-70 -28l-5 114l81 134l172 -28l-16 -474zM175 39l444 753l128 -79l-449 -765z" />
    <glyph glyph-name="circumflex" unicode="&#x2c6;" horiz-adv-x="438" 
d="M271 804l-48 120l-66 -120l-107 28l121 192l103 -4l114 -175z" />
    <glyph glyph-name="tilde" unicode="&#x2dc;" horiz-adv-x="434" 
d="M50 825q0 16 1.5 44.5t9 56.5t22.5 48t42 20q25 0 38 -10.5t22.5 -22.5t19.5 -22.5t29 -10.5q18 0 22.5 13t4.5 34q0 5 -0.5 10t-0.5 10l122 -14q1 -7 1.5 -15t0.5 -17q0 -23 -3.5 -49t-14 -48.5t-29.5 -37t-49 -14.5q-27 0 -43 9.5t-26.5 21.5t-19.5 21.5t-22 9.5
q-29 0 -29 -50z" />
    <glyph glyph-name="endash" unicode="&#x2013;" horiz-adv-x="683" 
d="M42 230l-14 159l618 57l2 -198z" />
    <glyph glyph-name="emdash" unicode="&#x2014;" horiz-adv-x="951" 
d="M42 230l-14 159l886 67l2 -208z" />
    <glyph glyph-name="quoteleft" unicode="&#x2018;" horiz-adv-x="259" 
d="M127 510l-112 237l170 21l64 -276z" />
    <glyph glyph-name="quoteright" unicode="&#x2019;" horiz-adv-x="260" 
d="M10 492l64 276l170 -21l-112 -237z" />
    <glyph glyph-name="quotesinglbase" unicode="&#x201a;" horiz-adv-x="318" 
d="M64 -102q26 15 37 38.5t11 49.5q-31 15 -46.5 42.5t-15.5 56.5q0 22 8.5 42.5t23 36t34 24.5t42.5 9q26 0 46.5 -9.5t34.5 -26t21.5 -38t7.5 -45.5q0 -30 -12 -60.5t-37.5 -56t-64 -43t-90.5 -20.5z" />
    <glyph glyph-name="quotedblleft" unicode="&#x201c;" horiz-adv-x="468" 
d="M336 510l-112 237l170 21l64 -276zM127 510l-112 237l169 21l64 -276z" />
    <glyph glyph-name="quotedblright" unicode="&#x201d;" horiz-adv-x="470" 
d="M220 492l64 276l170 -21l-112 -237zM10 492l64 276l170 -21l-112 -237z" />
    <glyph glyph-name="quotedblbase" unicode="&#x201e;" horiz-adv-x="586" 
d="M332 -102q26 15 37 38.5t11 49.5q-31 15 -46.5 42.5t-15.5 56.5q0 22 8.5 42.5t23 36t34 24.5t42.5 9q26 0 46.5 -9.5t34.5 -26t21.5 -38t7.5 -45.5q0 -30 -12 -60.5t-37.5 -56t-64 -43t-90.5 -20.5zM64 -102q26 15 37 38.5t11 49.5q-31 15 -46.5 42.5t-15.5 56.5
q0 22 8.5 42.5t23 36t34 24.5t42.5 9q26 0 46.5 -9.5t34.5 -26t21.5 -38t7.5 -45.5q0 -30 -12 -60.5t-37.5 -56t-64 -43t-90.5 -20.5z" />
    <glyph glyph-name="dagger" unicode="&#x2020;" horiz-adv-x="458" 
d="M120 -34l-2 453l-92 -3l-14 157l105 7l-1 176l226 4l-7 -164l100 7l5 -174l-112 -4l-19 -450z" />
    <glyph glyph-name="daggerdbl" unicode="&#x2021;" horiz-adv-x="458" 
d="M120 -34l-1 235l-90 -2l-15 152l104 10l-1 99l-90 -6l-14 157l103 11v134l226 4l-5 -111l87 9l5 -174l-99 -7l-4 -95l117 11l-7 -182l-117 -4l-10 -232z" />
    <glyph glyph-name="bullet" unicode="&#x2022;" horiz-adv-x="425" 
d="M213 167q-32 0 -61 12.5t-52 34t-36.5 52t-13.5 66.5q0 33 12.5 63.5t34 54t51 37t64.5 13.5q31 0 60.5 -12.5t52.5 -34.5t36.5 -52.5t13.5 -66.5q0 -32 -12 -62.5t-33 -53.5t-51 -37t-66 -14z" />
    <glyph glyph-name="ellipsis" unicode="&#x2026;" horiz-adv-x="951" 
d="M793 -25q-21 0 -40.5 8t-35 23t-24.5 35t-9 44q0 22 8.5 42.5t23 36t34 24.5t42.5 9q21 0 40.5 -8.5t35 -23t24.5 -35t9 -44.5q0 -21 -8 -41t-22 -35.5t-34 -25t-44 -9.5zM476 -25q-21 0 -40.5 8t-35 23t-24.5 35t-9 44q0 22 8.5 42.5t23 36t34 24.5t42.5 9
q21 0 40.5 -8.5t35 -23t24.5 -35t9 -44.5q0 -21 -8 -41t-22 -35.5t-34 -25t-44 -9.5zM159 -25q-21 0 -40.5 8t-35 23t-24.5 35t-9 44q0 22 8.5 42.5t23 36t34 24.5t42.5 9q21 0 40.5 -8.5t35 -23t24.5 -35t9 -44.5q0 -21 -8 -41t-22 -35.5t-34 -25t-44 -9.5z" />
    <glyph glyph-name="perthousand" unicode="&#x2030;" horiz-adv-x="1441" 
d="M220 39l444 753l128 -79l-449 -765zM208 291q-44 0 -79.5 20t-60.5 55t-38 82t-13 101q0 49 13.5 92t39 75t61.5 51t81 19t80.5 -19.5t60.5 -53.5t38 -79t13 -97q0 -44 -11 -88t-34.5 -79t-60.5 -57t-90 -22zM210 428q22 0 37 11.5t24 29t13 38.5t4 41q0 42 -18 62.5
t-44 20.5q-41 0 -63 -29.5t-22 -77.5q0 -17 3 -34t11 -30.5t21.5 -22.5t33.5 -9zM791 -44q-44 0 -79.5 20t-60.5 55t-38 82t-13 101q0 49 13.5 92t39 75t61.5 51t81 19t80.5 -19.5t60.5 -53.5t38 -79t13 -97q0 -44 -11 -88t-34.5 -79t-60.5 -57t-90 -22zM793 93
q22 0 37 11.5t24 29t13 38.5t4 41q0 42 -18 62.5t-44 20.5q-41 0 -63 -29.5t-22 -77.5q0 -17 3 -34t11 -30.5t21.5 -22.5t33.5 -9zM1222 -36q-44 0 -79.5 20t-60.5 55t-38 82t-13 101q0 49 13.5 92t39 75t61.5 51t81 19t80.5 -19.5t60.5 -53.5t38 -79t13 -97q0 -44 -11 -88
t-34.5 -79t-60.5 -57t-90 -22zM1224 101q22 0 37 11.5t24 29t13 38.5t4 41q0 42 -18 62.5t-44 20.5q-41 0 -63 -29.5t-22 -77.5q0 -17 3 -34t11 -30.5t21.5 -22.5t33.5 -9z" />
    <glyph glyph-name="guilsinglleft" unicode="&#x2039;" horiz-adv-x="393" 
d="M282 117l-267 257l253 282l107 -111l-159 -166l169 -161z" />
    <glyph glyph-name="guilsinglright" unicode="&#x203a;" horiz-adv-x="393" 
d="M118 117l-103 101l169 161l-159 166l107 111l253 -282z" />
    <glyph glyph-name="Euro" unicode="&#x20ac;" horiz-adv-x="637" 
d="M624 20q-50 -17 -97 -25.5t-91 -8.5q-75 0 -139 22t-113 60t-82 90.5t-46 113.5l-55 -3l-14 62l61 5v13v14t1 14l-46 -3l-13 65l70 6q14 57 45 109.5t79 92.5t113.5 64t148.5 24q35 0 72.5 -7t78.5 -23l-62 -179q-18 9 -37 13t-37 4q-63 0 -102.5 -22t-59.5 -56l217 19
l-5 -72l-233 -18v-7v-16t2 -16l216 19l-6 -75l-187 -12q21 -34 56 -50t77 -16q29 0 58.5 7.5t57.5 21.5z" />
    <glyph glyph-name="trademark" unicode="&#x2122;" horiz-adv-x="774" 
d="M631 402l-14 214l-76 -206l-53 3l-68 199l-14 -211l-112 19l58 345l117 -9l61 -167l66 156l120 5l34 -352zM110 382l7 259l-91 -7v128l286 -17l-2 -91l-106 -7l10 -253z" />
    </font>
</defs>
</svg>
